<svg xmlns="http://www.w3.org/2000/svg" width="107.753" height="88.219" viewBox="0 0 107.753 88.219">
  <g id="keyword" transform="translate(87.738 -128.008) rotate(30)">
    <path id="Path_18899" data-name="Path 18899" d="M103.869,158.133h-53.3a22,22,0,1,0,0,15.713H72.444a1.568,1.568,0,0,0,.943-.314l5.342-4.007,5.342,4.007a1.573,1.573,0,0,0,1.886,0l5.342-4.007,5.342,4.007a1.573,1.573,0,0,0,2.054-.145l6.285-6.285a1.573,1.573,0,0,0,.46-1.112V159.7a1.571,1.571,0,0,0-1.571-1.571Zm-1.571,7.206L97.437,170.2l-5.2-3.9a1.573,1.573,0,0,0-1.886,0l-5.342,4.007L79.672,166.3a1.573,1.573,0,0,0-1.886,0l-5.867,4.4H49.46a1.57,1.57,0,0,0-1.495,1.088,18.855,18.855,0,1,1,0-11.6,1.57,1.57,0,0,0,1.495,1.088H102.3Z" fill="#dac27a" stroke="#dac27a" stroke-width="1"/>
    <path id="Path_18900" data-name="Path 18900" d="M62.285,224a6.285,6.285,0,1,0,6.285,6.285A6.285,6.285,0,0,0,62.285,224Zm0,9.428a3.143,3.143,0,1,1,3.143-3.143A3.143,3.143,0,0,1,62.285,233.428Z" transform="translate(-38.551 -64.296)" fill="#dac27a" stroke="#dac27a" stroke-width="1"/>
  </g>
</svg>
