<svg xmlns="http://www.w3.org/2000/svg" width="71.613" height="74.014" viewBox="0 0 71.613 74.014">
  <path id="stairs" d="M100.413,85.613h-1.2V38.8a1.2,1.2,0,0,0-1.2-1.2h-7.2V18.4h3.6a1.2,1.2,0,0,0,0-2.4h-4.8a1.223,1.223,0,0,0-.807.313l-52.467,47.7H34.4a1.2,1.2,0,1,0,0,2.4h2.4a1.2,1.2,0,0,0,.807-.312L42.8,61.376V73.611H40.4a1.2,1.2,0,0,0-1.2,1.2v10.8h-6a1.2,1.2,0,1,0,0,2.4h67.213a1.2,1.2,0,0,0,0-2.4ZM66.807,39.553l21.6-19.64V37.6h-6a1.2,1.2,0,0,0-1.2,1.2v10.8h-10.8a1.2,1.2,0,0,0-1.2,1.2v10.8h-2.4Zm-2.4,2.182V61.608H56a1.2,1.2,0,0,0-1.2,1.2v10.8H45.2v-14.4h-.016ZM96.812,85.613H41.6v-9.6H56a1.2,1.2,0,0,0,1.2-1.2v-10.8h13.2a1.2,1.2,0,0,0,1.2-1.2v-10.8h10.8a1.2,1.2,0,0,0,1.2-1.2V40h13.2Z" transform="translate(-31 -15)" fill="#dac27a" stroke="#dac27a" stroke-width="2"/>
</svg>
