<svg xmlns="http://www.w3.org/2000/svg" width="134.242" height="92.509" viewBox="0 0 134.242 92.509">
  <g id="Group_5291" data-name="Group 5291" transform="translate(-884 -46)">
    <g id="Group_2360" data-name="Group 2360" transform="translate(884 92.631)">
      <g id="Group_2319" data-name="Group 2319" transform="translate(0 33.309)">
        <g id="Group_2318" data-name="Group 2318" transform="translate(0 0)">
          <path id="Path_15802" data-name="Path 15802" d="M-123.784-179.679a2.975,2.975,0,0,0-1.26-1.07,3.765,3.765,0,0,0-.872-.276,5.157,5.157,0,0,0-.958-.087q-.362,0-.587.018c-.149.011-.265.023-.345.034-.012.069-.023.129-.035.181a1.416,1.416,0,0,0-.026.2c-.006.081-.011.193-.017.337s-.015.348-.026.613q-.017.6-.026,1.364t-.009,1.467v1.9q.708,0,1.321-.061a5.4,5.4,0,0,0,1.183-.25,3.166,3.166,0,0,0,.949-.466,2.7,2.7,0,0,0,.647-.664,2.768,2.768,0,0,0,.371-.8,3.334,3.334,0,0,0,.121-.9,2.784,2.784,0,0,0-.432-1.537m1.709,10.755q-.156-.156-.224-.233c-.046-.052-.1-.112-.155-.181a3.471,3.471,0,0,1-.216-.3c-.086-.132-.222-.331-.406-.6q-.328-.483-.578-.872t-.509-.768q-.259-.379-.561-.768t-.716-.872a7.228,7.228,0,0,0-.751-.742,1.861,1.861,0,0,0-.855-.431,2.654,2.654,0,0,0-.5-.069c-.1,0-.236-.005-.4-.017v1.95q0,.829.017,1.4.017.553.034.95a1.254,1.254,0,0,0,.191.656,1.516,1.516,0,0,0,.535.458,2.431,2.431,0,0,0,1.1.268v.172h-5.524v-.172a4.824,4.824,0,0,0,.829-.207,1.342,1.342,0,0,0,.621-.415.779.779,0,0,0,.138-.31,3.28,3.28,0,0,0,.078-.467q.026-.259.043-.552t.017-.57q0-.241.009-.656t.018-.906q.008-.492.008-1.01v-4.368c0-.208,0-.417-.008-.631s-.018-.414-.035-.6a3.258,3.258,0,0,0-.087-.519.732.732,0,0,0-.164-.336,1.3,1.3,0,0,0-.578-.371,5.876,5.876,0,0,0-.785-.164v-.172h.708q.587,0,1.329-.008t1.485-.009h1.208q1.157,0,2.055.069a4.108,4.108,0,0,1,1.64.466,3.319,3.319,0,0,1,1.226,1.08,2.976,2.976,0,0,1,.466,1.717,2.726,2.726,0,0,1-.233,1.148,3.066,3.066,0,0,1-.621.9,3.814,3.814,0,0,1-.907.664,7.036,7.036,0,0,1-1.087.466v.052a2.237,2.237,0,0,1,.57.449,6.279,6.279,0,0,1,.535.656q.448.657.975,1.416t.941,1.346a5.3,5.3,0,0,0,1.243,1.312,3.328,3.328,0,0,0,1.416.535v.172Z" transform="translate(131.588 181.371)" fill="#dac27a"/>
        </g>
      </g>
      <g id="Group_2321" data-name="Group 2321" transform="translate(16.967 33.327)">
        <g id="Group_2320" data-name="Group 2320" transform="translate(0 0)">
          <path id="Path_15803" data-name="Path 15803" d="M-167.609,12.43h-10.566v-.172a3.514,3.514,0,0,0,.8-.224,1.642,1.642,0,0,0,.613-.432.775.775,0,0,0,.138-.3q.052-.2.095-.458a5.378,5.378,0,0,0,.061-.544q.017-.284.017-.561,0-.242.009-.656t.017-.906q.008-.492.008-1.01V2.8c0-.208,0-.42-.008-.639s-.017-.425-.034-.621a3.311,3.311,0,0,0-.086-.527.733.733,0,0,0-.164-.337,1.185,1.185,0,0,0-.553-.354,7.26,7.26,0,0,0-.759-.147V0h9.53l1.174,2.848-.173.086A8.414,8.414,0,0,0-170.112.587,4.209,4.209,0,0,0-171.2.345a15.286,15.286,0,0,0-1.934-.1q-.362,0-.751.026a4.957,4.957,0,0,0-.561.061q-.036.276-.061,1.139t-.026,2v1.1c0,.3,0,.544.009.734s.008.337.008.44v.19h.345q.259,0,.6-.018t.674-.043a3.847,3.847,0,0,0,.561-.078,3.012,3.012,0,0,0,.864-.328,1.9,1.9,0,0,0,.561-.5,2.47,2.47,0,0,0,.345-.681,8.287,8.287,0,0,0,.233-.872h.208V8.857h-.208a5.85,5.85,0,0,0-.423-1.139,3.031,3.031,0,0,0-.6-.881,2.289,2.289,0,0,0-.665-.4,2.98,2.98,0,0,0-.906-.19c-.173-.011-.316-.02-.431-.025s-.23-.009-.345-.009h-.794a5.348,5.348,0,0,0-.035.708V8.995q0,.276.009.527c.005.167.008.308.008.423q.017.553.061,1.044a1.649,1.649,0,0,0,.2.734,1.085,1.085,0,0,0,.742.345,7.372,7.372,0,0,0,1.277.1q.294,0,.751-.018a9.527,9.527,0,0,0,.958-.086,3.777,3.777,0,0,0,1.019-.268,3.575,3.575,0,0,0,.9-.561,5.663,5.663,0,0,0,.838-.89,11.881,11.881,0,0,0,.837-1.269l.189.052Z" transform="translate(178.175)" fill="#dac27a"/>
        </g>
      </g>
      <g id="Group_2323" data-name="Group 2323" transform="translate(32.895 33.137)">
        <g id="Group_2322" data-name="Group 2322" transform="translate(0 0)">
          <path id="Path_15804" data-name="Path 15804" d="M-130.224-23.65a3.353,3.353,0,0,1-.932,1.122,3.957,3.957,0,0,1-1.425.691,6.924,6.924,0,0,1-1.812.225,8.743,8.743,0,0,1-1.451-.1,5.712,5.712,0,0,1-1-.25,3.528,3.528,0,0,1-.6-.268.79.79,0,0,0-.251-.121c-.035,0-.11.07-.225.208s-.219.271-.311.4h-.155l-.052-3.436h.173a5.5,5.5,0,0,0,.4.907,7.46,7.46,0,0,0,.526.829,4.651,4.651,0,0,0,.6.681,2.983,2.983,0,0,0,.613.449,4.9,4.9,0,0,0,.776.31,3.032,3.032,0,0,0,.933.156,3.022,3.022,0,0,0,2.072-.7,2.391,2.391,0,0,0,.794-1.891,2.134,2.134,0,0,0-.155-.846,1.982,1.982,0,0,0-.423-.63,2.58,2.58,0,0,0-.63-.458,6.94,6.94,0,0,0-.777-.345c-.276-.1-.518-.19-.725-.258s-.4-.135-.578-.2-.363-.126-.553-.19-.417-.147-.681-.25a3.761,3.761,0,0,1-.864-.475,3.52,3.52,0,0,1-.725-.708,3.577,3.577,0,0,1-.5-.9,2.862,2.862,0,0,1-.19-1.044,3.523,3.523,0,0,1,.34-1.606,3.283,3.283,0,0,1,.915-1.122,3.856,3.856,0,0,1,1.325-.664,5.709,5.709,0,0,1,1.58-.216,5.917,5.917,0,0,1,1.33.129,5.359,5.359,0,0,1,.906.285,3.075,3.075,0,0,1,.535.285,1.232,1.232,0,0,0,.2.13c.035,0,.106-.069.216-.208s.21-.276.3-.414h.19v3.194h-.19a6.992,6.992,0,0,0-.535-1.131,5.15,5.15,0,0,0-.76-1,3.68,3.68,0,0,0-.984-.717,2.706,2.706,0,0,0-1.226-.276,3.236,3.236,0,0,0-1.01.156,2.349,2.349,0,0,0-.828.466,2.138,2.138,0,0,0-.553.768,2.6,2.6,0,0,0-.2,1.045,1.986,1.986,0,0,0,.551,1.467,3.923,3.923,0,0,0,1.429.881q.344.138.646.242c.2.069.4.135.594.2s.393.13.594.2.41.144.628.225a4.01,4.01,0,0,1,1.817,1.251,3.206,3.206,0,0,1,.646,2.046,3.2,3.2,0,0,1-.337,1.485" transform="translate(138.433 34.354)" fill="#dac27a"/>
        </g>
      </g>
      <g id="Group_2325" data-name="Group 2325" transform="translate(45.721 33.327)">
        <g id="Group_2324" data-name="Group 2324" transform="translate(0 0)">
          <path id="Path_15805" data-name="Path 15805" d="M0,12.43v-.172a3.532,3.532,0,0,0,.8-.224,1.709,1.709,0,0,0,.63-.449.694.694,0,0,0,.129-.294,3.945,3.945,0,0,0,.07-.449q.026-.259.034-.544t.008-.561q0-.242.009-.656T1.7,8.175q.008-.492.008-1.01V2.176c0-.208-.008-.4-.026-.578a3.6,3.6,0,0,0-.078-.484A.8.8,0,0,0,1.45.777a1.377,1.377,0,0,0-.6-.423,3.519,3.519,0,0,0-.8-.181V0H5.214V.173a4.461,4.461,0,0,0-.777.19A1.112,1.112,0,0,0,3.8.915a1.645,1.645,0,0,0-.164.742c-.006.3-.015.582-.026.846q0,.433-.009.855t-.009.855V10q0,.5.017.967a1.236,1.236,0,0,0,.155.656,1.288,1.288,0,0,0,.656.449,3.538,3.538,0,0,0,.812.19v.172Z" fill="#dac27a"/>
        </g>
      </g>
      <g id="Group_2327" data-name="Group 2327" transform="translate(55.565 33.309)">
        <g id="Group_2326" data-name="Group 2326" transform="translate(0 0)">
          <path id="Path_15806" data-name="Path 15806" d="M-175.28-135.89a6.254,6.254,0,0,0-.863-1.718,5.528,5.528,0,0,0-1.312-1.3,4.034,4.034,0,0,0-1.657-.69q-.346-.069-.76-.112a10.18,10.18,0,0,0-1.018-.043q-.208,0-.449.008c-.161.006-.319.017-.475.035s-.3.032-.432.043a1.766,1.766,0,0,0-.319.052q-.087.846-.1,2.331t-.017,3.539v2.02q0,.9.017,1.468,0,.242.026.526t.061.552a2.283,2.283,0,0,0,.112.484.864.864,0,0,0,.181.319,1.6,1.6,0,0,0,.872.44,5.585,5.585,0,0,0,.993.1q.431,0,.889-.043a4.3,4.3,0,0,0,.854-.164,4.58,4.58,0,0,0,2.789-2.08,7.306,7.306,0,0,0,.924-3.807,6.237,6.237,0,0,0-.311-1.951m2.123,4.2A5.556,5.556,0,0,1-174-130a4.994,4.994,0,0,1-1.243,1.174,6.755,6.755,0,0,1-1.5.742,8.278,8.278,0,0,1-1.64.388,12.464,12.464,0,0,1-1.64.112h-6.3v-.172a3.05,3.05,0,0,0,.837-.224,1.628,1.628,0,0,0,.613-.415.586.586,0,0,0,.13-.293q.043-.208.078-.466t.052-.552q.017-.294.017-.57,0-.241.009-.656c.005-.276.011-.578.017-.906s.008-.665.008-1.01v-4.99q0-.311-.025-.578a3.592,3.592,0,0,0-.078-.484.81.81,0,0,0-.155-.337,1.361,1.361,0,0,0-.622-.431,4.049,4.049,0,0,0-.811-.173v-.173q.725,0,2.089-.008t3.3-.009h1.1q.57,0,1.14.052a9.741,9.741,0,0,1,1.139.172,5.806,5.806,0,0,1,1.122.363,6.484,6.484,0,0,1,1.364.794,5.3,5.3,0,0,1,1.113,1.148,5.631,5.631,0,0,1,.76,1.537,6.419,6.419,0,0,1,.285,1.994,7.583,7.583,0,0,1-.311,2.279" transform="translate(186.329 140.033)" fill="#dac27a"/>
        </g>
      </g>
      <g id="Group_2329" data-name="Group 2329" transform="translate(72.955 33.327)">
        <g id="Group_2328" data-name="Group 2328" transform="translate(0 0)">
          <path id="Path_15807" data-name="Path 15807" d="M-167.609,12.43h-10.566v-.172a3.522,3.522,0,0,0,.8-.224,1.644,1.644,0,0,0,.613-.432.774.774,0,0,0,.138-.3q.052-.2.1-.458a5.449,5.449,0,0,0,.061-.544c.011-.19.017-.377.017-.561q0-.242.009-.656t.017-.906q.008-.492.008-1.01V2.8c0-.208,0-.42-.008-.639s-.017-.425-.035-.621a3.259,3.259,0,0,0-.087-.527.736.736,0,0,0-.164-.337,1.185,1.185,0,0,0-.553-.354,7.26,7.26,0,0,0-.759-.147V0h9.53l1.174,2.848-.173.086A8.417,8.417,0,0,0-170.112.587,4.211,4.211,0,0,0-171.2.345a15.288,15.288,0,0,0-1.934-.1q-.362,0-.751.026a4.964,4.964,0,0,0-.561.061q-.035.276-.06,1.139t-.026,2v1.1c0,.3,0,.544.009.734s.008.337.008.44v.19h.345c.172,0,.371-.006.6-.018s.449-.025.673-.043a3.851,3.851,0,0,0,.561-.078,3.011,3.011,0,0,0,.863-.328,1.9,1.9,0,0,0,.561-.5,2.469,2.469,0,0,0,.345-.681,8.228,8.228,0,0,0,.232-.872h.208V8.857h-.208a5.849,5.849,0,0,0-.423-1.139,3.031,3.031,0,0,0-.595-.881,2.3,2.3,0,0,0-.665-.4,2.982,2.982,0,0,0-.906-.19c-.173-.011-.317-.02-.432-.025s-.23-.009-.345-.009h-.794a5.413,5.413,0,0,0-.034.708V8.995q0,.276.009.527c.005.167.008.308.008.423q.017.553.061,1.044a1.648,1.648,0,0,0,.2.734,1.086,1.086,0,0,0,.742.345,7.369,7.369,0,0,0,1.277.1q.294,0,.751-.018a9.534,9.534,0,0,0,.958-.086,3.775,3.775,0,0,0,1.018-.268,3.57,3.57,0,0,0,.9-.561,5.652,5.652,0,0,0,.838-.89,11.842,11.842,0,0,0,.837-1.269l.19.052Z" transform="translate(178.175)" fill="#dac27a"/>
        </g>
      </g>
      <g id="Group_2331" data-name="Group 2331" transform="translate(88.185 33.327)">
        <g id="Group_2330" data-name="Group 2330" transform="translate(0 0)">
          <path id="Path_15808" data-name="Path 15808" d="M-206.358-201.541a1.528,1.528,0,0,0-.6.742,2.9,2.9,0,0,0-.155.958q-.035.7-.069,1.493-.035.743-.061,1.753t-.026,2.167v1.105q0,.6.009,1.234t.008,1.252v1.122a.153.153,0,0,1-.043.113.178.178,0,0,1-.13.043.475.475,0,0,1-.31-.172q-1.468-1.692-2.676-3.108t-2.3-2.7q-1.1-1.286-2.149-2.512t-2.227-2.537v7.285q0,.88.043,1.588a2.848,2.848,0,0,0,.216,1.053,1.247,1.247,0,0,0,.6.6,3.566,3.566,0,0,0,1.114.285v.172h-4.247v-.172a3.391,3.391,0,0,0,.829-.216,1.348,1.348,0,0,0,.656-.544,2.371,2.371,0,0,0,.311-1.071q.069-.708.1-1.692.035-.742.052-1.753t.017-2.166v-2.106q0-.345-.017-.846a2.017,2.017,0,0,0-.242-.821,1.6,1.6,0,0,0-.449-.5,1.728,1.728,0,0,0-.561-.259,4.827,4.827,0,0,0-.579-.112v-.172h3.5l8.184,9.564v-5.87q0-.69-.018-1.32a3.118,3.118,0,0,0-.155-.993,1.585,1.585,0,0,0-.613-.786,3.042,3.042,0,0,0-1.269-.423v-.172h4.281v.172a2.613,2.613,0,0,0-1.027.328" transform="translate(219.367 202.042)" fill="#dac27a"/>
        </g>
      </g>
      <g id="Group_2333" data-name="Group 2333" transform="translate(105.557 33.067)">
        <g id="Group_2332" data-name="Group 2332" transform="translate(0 0)">
          <path id="Path_15809" data-name="Path 15809" d="M-188.144-138.969a5.811,5.811,0,0,0-.674-1.553,5.5,5.5,0,0,0-1.061-1.261,4.852,4.852,0,0,0-1.381-.846,4.319,4.319,0,0,0-1.632-.31,4.182,4.182,0,0,0-2.123.535,4.9,4.9,0,0,0-1.563,1.416,6.746,6.746,0,0,0-.966,1.994,7.846,7.846,0,0,0-.337,2.287,7.484,7.484,0,0,0,.354,2.331,5.765,5.765,0,0,0,1.01,1.89,4.8,4.8,0,0,0,1.588,1.269,4.565,4.565,0,0,0,2.072.466,4.322,4.322,0,0,0,1.683-.328,5.079,5.079,0,0,0,1.4-.863,5.193,5.193,0,0,0,1.036-1.235,4.574,4.574,0,0,0,.578-1.442h.207l-.052,3.8h-.207a5.244,5.244,0,0,0-.432-.535q-.225-.241-.31-.241a1.518,1.518,0,0,0-.311.181,5.022,5.022,0,0,1-.794.4,7.539,7.539,0,0,1-1.26.38,8,8,0,0,1-1.709.164,8.651,8.651,0,0,1-2.9-.457,6.268,6.268,0,0,1-2.2-1.295,5.621,5.621,0,0,1-1.39-2,6.619,6.619,0,0,1-.484-2.564,6.543,6.543,0,0,1,.043-.708,6.266,6.266,0,0,1,.155-.846,7.14,7.14,0,0,1,.311-.941,6.487,6.487,0,0,1,.509-.993,6.22,6.22,0,0,1,.9-1.122,5.713,5.713,0,0,1,1.26-.941,7.037,7.037,0,0,1,1.64-.647,8.039,8.039,0,0,1,2.055-.242,7.709,7.709,0,0,1,1.813.19,8.261,8.261,0,0,1,1.294.414,4.9,4.9,0,0,1,.794.415,1.507,1.507,0,0,0,.311.19.3.3,0,0,0,.129-.078c.063-.052.132-.115.207-.19s.152-.162.233-.259a3.659,3.659,0,0,0,.224-.3h.191v3.867Z" transform="translate(200.004 143.233)" fill="#dac27a"/>
        </g>
      </g>
      <g id="Group_2335" data-name="Group 2335" transform="translate(122.201 33.327)">
        <g id="Group_2334" data-name="Group 2334" transform="translate(0 0)">
          <path id="Path_15810" data-name="Path 15810" d="M-167.605,12.43h-10.566v-.172a3.521,3.521,0,0,0,.8-.224,1.642,1.642,0,0,0,.613-.432.771.771,0,0,0,.138-.3c.035-.132.066-.285.1-.458a5.437,5.437,0,0,0,.06-.544c.011-.19.018-.377.018-.561q0-.242.009-.656t.017-.906q.008-.492.008-1.01V2.8c0-.208,0-.42-.008-.639s-.017-.425-.035-.621a3.287,3.287,0,0,0-.086-.527A.736.736,0,0,0-176.7.673a1.186,1.186,0,0,0-.553-.354,7.264,7.264,0,0,0-.759-.147V0h9.53l1.174,2.848-.172.086A8.417,8.417,0,0,0-170.108.587,4.211,4.211,0,0,0-171.2.345a15.291,15.291,0,0,0-1.933-.1q-.363,0-.751.026a4.965,4.965,0,0,0-.561.061q-.036.276-.06,1.139t-.026,2v1.1c0,.3,0,.544.009.734s.008.337.008.44v.19h.345c.172,0,.371-.006.6-.018s.449-.025.674-.043a3.857,3.857,0,0,0,.561-.078,3.01,3.01,0,0,0,.863-.328,1.9,1.9,0,0,0,.561-.5,2.469,2.469,0,0,0,.345-.681,8.239,8.239,0,0,0,.233-.872h.208V8.857h-.208a5.851,5.851,0,0,0-.423-1.139,3.036,3.036,0,0,0-.6-.881,2.3,2.3,0,0,0-.665-.4,2.982,2.982,0,0,0-.907-.19c-.173-.011-.316-.02-.431-.025s-.23-.009-.345-.009h-.794a5.36,5.36,0,0,0-.035.708V8.995q0,.276.009.527c.005.167.008.308.008.423q.017.553.061,1.044a1.649,1.649,0,0,0,.2.734,1.085,1.085,0,0,0,.742.345,7.374,7.374,0,0,0,1.277.1q.294,0,.751-.018a9.529,9.529,0,0,0,.958-.086A3.775,3.775,0,0,0-169.5,11.8a3.57,3.57,0,0,0,.9-.561,5.664,5.664,0,0,0,.838-.89,11.845,11.845,0,0,0,.837-1.269l.19.052Z" transform="translate(178.171)" fill="#dac27a"/>
        </g>
      </g>
      <g id="Group_2337" data-name="Group 2337" transform="translate(0 0)">
        <g id="Group_2336" data-name="Group 2336">
          <path id="Path_15811" data-name="Path 15811" d="M-205.045-483.236s-12.926,3.584-12.926,13.509a15.005,15.005,0,0,0,14.956,15.382c7.05,0,14.955-5.917,14.955-15.014s-9.935-13.876-12.178-13.876,2.137,1.47,3.2,2.114,2.03,2.849,2.03,11.947-1.175,14.061-8.012,14.061-7.8-3.4-7.8-14.152,2.884-12.406,4.273-12.774,4.059-1.47,1.5-1.195" transform="translate(217.971 483.28)" fill="#dac27a"/>
        </g>
      </g>
      <g id="Group_2339" data-name="Group 2339" transform="translate(95.71 27.592)">
        <g id="Group_2338" data-name="Group 2338" transform="translate(0 0)">
          <path id="Path_15812" data-name="Path 15812" d="M0,.026H.143c-.084,0-.139,0-.143,0" transform="translate(0 -0.025)" fill="#dac27a"/>
        </g>
      </g>
      <g id="Group_2341" data-name="Group 2341" transform="translate(82.27 0.043)">
        <g id="Group_2340" data-name="Group 2340" transform="translate(0 0)">
          <path id="Path_15813" data-name="Path 15813" d="M-503.678-154.235l3.574-9.594s.125-.752.5-.752.5.752.5.752l3.01,9.594Zm-14.987-5.142h-6.71V-171.55h6.772s3.26-.243,3.26,5.777-2.947,6.4-3.323,6.4m-12.291-12.173v26.276h-3.539c-.251,0-.9,0-.9.647s.657.645.918.645h12.674c.253,0,.94,0,.94-.645s-.708-.645-.98-.645h-3.528v-13.033h5.142c3.574,0,3.449,3.571,3.449,3.571v5.894a4.559,4.559,0,0,0,4.954,4.862l6.653-.005c.128,0,.926,0,.926-.642s-.677-.647-.807-.647h-1.818l2.7-7.456h8.716l2.567,7.456h-1.7c-.249,0-.982,0-.982.647s.7.645.852.645h10.416c.188,0,.857,0,.857-.645s-.757-.647-1-.647h-2.856l-9.591-27.02s-.188-.515-.5-.515-.627.578-.627.578l-10.224,26.957h-1.756s-.75-.872-.75-6.578-6.772-7.023-6.772-7.023,7.9-.125,7.9-7.211-8.34-6.734-8.34-6.734h-16.47c.087,0,.144,0,.144,0h-.144c-.3.009-.984.089-.984.618,0,.5.611.622.934.651" transform="translate(535.43 172.824)" fill="#dac27a"/>
        </g>
      </g>
      <g id="Group_2343" data-name="Group 2343" transform="translate(56.018 0.05)">
        <g id="Group_2342" data-name="Group 2342" transform="translate(0 0)">
          <path id="Path_15814" data-name="Path 15814" d="M-77.588-463.6v26.275h-3.762c-.284,0-1.129,0-1.129.647s.85.645,1.124.645h24.241v-9.249h-.6v2.571a5.1,5.1,0,0,1-5.11,5.393h-9.5v-12.51h5.895c2.1,0,2.163,3.888,2.163,3.888h.753v-9.312h-.6s-.275,3.856-2.477,3.856h-5.8v-12.2H-62.6c5.174,0,4.734,6.4,4.734,6.4h.5v-7.663H-81.444s-.033,0-.084-.007c-.318.015-.947.107-.947.616s.611.622.934.651" transform="translate(82.479 464.871)" fill="#dac27a"/>
        </g>
      </g>
      <g id="Group_2345" data-name="Group 2345" transform="translate(30.34 0.054)">
        <g id="Group_2344" data-name="Group 2344" transform="translate(0 0)">
          <path id="Path_15815" data-name="Path 15815" d="M-237.241-214.776h-4.891V-228.7h4.8s4.985-.524,4.985,6.96-4.891,6.96-4.891,6.96m-13.478-15.187c.087,0,.144,0,.144,0h-.144c-.3.009-.984.089-.984.618a.492.492,0,0,0,.088.285,1.163,1.163,0,0,0,.169.162,1.43,1.43,0,0,0,.588.193h3.553v26.276h-3.951s-.94,0-.94.649.846.643.846.643h13.639s.837,0,.837-.651-.938-.64-.938-.64h-4.326l.007-11.313h6.584s8.559.282,8.559-7.713-8.465-8.51-10.441-8.51" transform="translate(252.196 229.964)" fill="#dac27a"/>
        </g>
      </g>
    </g>
    <g id="Group_2361" data-name="Group 2361" transform="translate(935.62 46)">
      <g id="Group_2347" data-name="Group 2347" transform="translate(1.979 4.769)">
        <g id="Group_2346" data-name="Group 2346" transform="translate(0 0)">
          <path id="Path_15816" data-name="Path 15816" d="M-18.9-62.53c.832.655,3.285,2.507,5.523,4.191,1.437-1.15,2.583-2.065,2.816-2.25a6.24,6.24,0,0,1,2.865-1.4l.044-.01.044-.005a14.058,14.058,0,0,1,3.227.307c1.667.269,9.2,1.666,13.57,2.481C5.561-61.709-.63-65.951-1.988-66.835A16.455,16.455,0,0,0-4.33-68.195a4.564,4.564,0,0,0-2.187.067l-.052.022-.042.009c-.1.025-9.8,2.566-11.815,3.146a3.028,3.028,0,0,0-1.665.93A3.025,3.025,0,0,0-18.9-62.53" transform="translate(20.092 68.288)" fill="#dac27a"/>
        </g>
      </g>
      <g id="Group_2349" data-name="Group 2349" transform="translate(1.818 16.896)">
        <g id="Group_2348" data-name="Group 2348" transform="translate(0 0)">
          <path id="Path_15817" data-name="Path 15817" d="M-218.317,4.748l.06.014.036.014a4.624,4.624,0,0,0,2.219,0,16.6,16.6,0,0,0,2.328-1.448c1.352-.941,7.529-5.458,11.113-8.082-4.3.938-11.686,2.545-13.324,2.861a17.587,17.587,0,0,1-3.024.407c-.083,0-.133,0-.158-.005l-.045,0-.044-.009a6.181,6.181,0,0,1-2.878-1.3c-.251-.188-1.55-1.161-3.136-2.352-2.285,1.831-4.889,3.925-5.747,4.643a3.057,3.057,0,0,0-1.162,1.553,3.056,3.056,0,0,0,1.72.9c2.059.524,11.943,2.791,12.042,2.814" transform="translate(232.079 5.158)" fill="#dac27a"/>
        </g>
      </g>
      <g id="Group_2351" data-name="Group 2351" transform="translate(1.929 9.101)">
        <g id="Group_2350" data-name="Group 2350" transform="translate(0 0)">
          <path id="Path_15818" data-name="Path 15818" d="M-.114-.779l0,0,0,.041Z" transform="translate(0.121 0.779)" fill="#dac27a"/>
        </g>
      </g>
      <g id="Group_2353" data-name="Group 2353" transform="translate(10.114 12.758)">
        <g id="Group_2352" data-name="Group 2352" transform="translate(0 0)">
          <path id="Path_15819" data-name="Path 15819" d="M-72.583-102.6a4.623,4.623,0,0,0-2,.962l-.039.041-.035.025c-.029.023-1.086.867-2.5,2,1.571,1.18,2.782,2.087,2.813,2.11l.049.037.027.027a4.562,4.562,0,0,0,2,.887,16.427,16.427,0,0,0,2.682-.376c1.624-.314,9.235-1.969,13.49-2.9-4.325-.806-12.1-2.249-13.76-2.517a16.623,16.623,0,0,0-2.726-.3" transform="translate(77.158 102.596)" fill="#dac27a"/>
        </g>
      </g>
      <g id="Group_2355" data-name="Group 2355" transform="translate(3.515 19.54)">
        <g id="Group_2354" data-name="Group 2354" transform="translate(0 0)">
          <path id="Path_15820" data-name="Path 15820" d="M-280.654-74.325a14.068,14.068,0,0,1-2.776,1.675l-.043.015-.044.01a7.319,7.319,0,0,1-1.628.189,5.272,5.272,0,0,1-1.562-.212c-.746-.171-9.015-2.069-11.641-2.714a15.786,15.786,0,0,0,12.3,5.876A15.822,15.822,0,0,0-270.67-81.579c-3.628,2.655-8.74,6.389-9.984,7.255" transform="translate(298.346 81.579)" fill="#dac27a"/>
        </g>
      </g>
      <g id="Group_2357" data-name="Group 2357" transform="translate(3.042 0)">
        <g id="Group_2356" data-name="Group 2356" transform="translate(0 0)">
          <path id="Path_15821" data-name="Path 15821" d="M-2.011-80.664C-.018-81.237,9.027-83.607,9.8-83.811a6.184,6.184,0,0,1,3.156-.12l.044.009.043.013a13.9,13.9,0,0,1,2.8,1.572c1.251.815,6.383,4.326,10.046,6.839A15.822,15.822,0,0,0,10.637-87.117,15.793,15.793,0,0,0-2.138-80.626l.127-.038" transform="translate(2.138 87.117)" fill="#dac27a"/>
        </g>
      </g>
      <g id="Group_2359" data-name="Group 2359" transform="translate(0 10.626)">
        <g id="Group_2358" data-name="Group 2358" transform="translate(0 0)">
          <path id="Path_15822" data-name="Path 15822" d="M-29.738-6.418c.835-.7,3.233-2.629,5.432-4.391-2.141-1.611-4.392-3.313-5.2-3.949a6.232,6.232,0,0,1-1.234-1.254,15.8,15.8,0,0,0-.872,5.191,15.784,15.784,0,0,0,.93,5.353,6.854,6.854,0,0,1,.945-.95" transform="translate(31.613 16.013)" fill="#dac27a"/>
        </g>
      </g>
    </g>
  </g>
</svg>
