<svg xmlns="http://www.w3.org/2000/svg" width="164.891" height="148.668" viewBox="0 0 164.891 148.668">
  <g id="Group_5094" data-name="Group 5094" transform="translate(-2895.75 -20342)">
    <g id="Group_3311" data-name="Group 3311" transform="translate(2898.75 20345)">
      <path id="Path_16822" data-name="Path 16822" stroke="#dac27a" d="M515.084,731.524a35.667,35.667,0,1,1-71.333,0c0-19.7,15.968-81.524,35.667-81.524S515.084,711.826,515.084,731.524Z" fill="none" transform="translate(-443.75 -650)" stroke-linecap="round" stroke-linejoin="round" stroke-miterlimit="2" stroke-width="6" fill-rule="evenodd"/>
    </g>
    <g id="Group_3312" data-name="Group 3312" transform="translate(2934.417 20362.467)">
      <path id="Path_16823" data-name="Path 16823" stroke="#dac27a" d="M472.917,789.484v-112.1l18.379-13.1" fill="none" transform="translate(-472.917 -664.284)" stroke-linecap="round" stroke-linejoin="round" stroke-miterlimit="2" stroke-width="6" fill-rule="evenodd"/>
    </g>
    <g id="Group_3313" data-name="Group 3313" transform="translate(3021.036 20441.811)">
      <path id="Path_16824" data-name="Path 16824" stroke="#dac27a" d="M543.75,729.167v45.857" fill="none" transform="translate(-543.75 -729.167)" stroke-linecap="round" stroke-linejoin="round" stroke-miterlimit="2" stroke-width="6" fill-rule="evenodd"/>
    </g>
    <g id="Group_3314" data-name="Group 3314" transform="translate(2985.369 20390.857)">
      <path id="Path_16825" data-name="Path 16825" stroke="#dac27a" d="M585.917,723.167A35.667,35.667,0,1,1,550.25,687.5,35.667,35.667,0,0,1,585.917,723.167Z" fill="none" transform="translate(-514.584 -687.5)" stroke-linecap="round" stroke-linejoin="round" stroke-miterlimit="2" stroke-width="6" fill-rule="evenodd"/>
    </g>
    <g id="Group_3315" data-name="Group 3315" transform="translate(2898.75 20487.668)">
      <path id="Path_16826" data-name="Path 16826" stroke="#dac27a" d="M443.75,766.667H596.607" fill="none" transform="translate(-443.75 -766.667)" stroke-linecap="round" stroke-linejoin="round" stroke-miterlimit="2" stroke-width="6" fill-rule="evenodd"/>
    </g>
    <g id="Group_3316" data-name="Group 3316" transform="translate(2900.33 20411.846)">
      <path id="Path_16827" data-name="Path 16827" stroke="#dac27a" d="M479.129,729.533l-34.087-24.87" fill="none" transform="translate(-445.042 -704.663)" stroke-linecap="round" stroke-linejoin="round" stroke-miterlimit="2" stroke-width="6" fill-rule="evenodd"/>
    </g>
    <g id="Group_3317" data-name="Group 3317" transform="translate(2934.417 20398.99)">
      <path id="Path_16828" data-name="Path 16828" stroke="#dac27a" d="M472.917,712.412,504.3,694.151" fill="none" transform="translate(-472.917 -694.151)" stroke-linecap="round" stroke-linejoin="round" stroke-miterlimit="2" stroke-width="6" fill-rule="evenodd"/>
    </g>
    <g id="Group_3318" data-name="Group 3318" transform="translate(2910.24 20375.572)">
      <path id="Path_16829" data-name="Path 16829" stroke="#dac27a" d="M477.323,691.932,453.146,675" fill="none" transform="translate(-453.146 -675)" stroke-linecap="round" stroke-linejoin="round" stroke-miterlimit="2" stroke-width="6" fill-rule="evenodd"/>
    </g>
    <g id="Group_3319" data-name="Group 3319" transform="translate(2985.497 20423.574)">
      <path id="Path_16830" data-name="Path 16830" stroke="#dac27a" d="M550.227,732.491l-35.539-18.236" fill="none" transform="translate(-514.688 -714.255)" stroke-linecap="round" stroke-linejoin="round" stroke-miterlimit="2" stroke-width="6" fill-rule="evenodd"/>
    </g>
    <g id="Group_3320" data-name="Group 3320" transform="translate(3021.036 20395.953)">
      <path id="Path_16831" data-name="Path 16831" stroke="#dac27a" d="M559.036,691.667,543.75,737.524l35.667-15.286" fill="none" transform="translate(-543.75 -691.667)" stroke-linecap="round" stroke-linejoin="round" stroke-miterlimit="2" stroke-width="6" fill-rule="evenodd"/>
    </g>
    <g id="Group_3321" data-name="Group 3321" transform="translate(3000.354 20397.502)">
      <path id="Path_16832" data-name="Path 16832" stroke="#dac27a" d="M547.519,737.242l-20.682-44.308" fill="none" transform="translate(-526.838 -692.934)" stroke-linecap="round" stroke-linejoin="round" stroke-miterlimit="2" stroke-width="6" fill-rule="evenodd"/>
    </g>
  </g>
</svg>
