<svg xmlns="http://www.w3.org/2000/svg" width="153.548" height="152.896" viewBox="0 0 153.548 152.896">
  <g id="Group_5093" data-name="Group 5093" transform="translate(-3676.578 -16555.711)">
    <g id="Group_3023" data-name="Group 3023" transform="translate(3728.79 16633.861)">
      <path id="Path_16590" data-name="Path 16590" d="M334.464,350.516h56.523a21.1,21.1,0,0,1,19.41,12.776,1.945,1.945,0,0,0,1.781,1.178,2,2,0,0,0,.761-.158,1.938,1.938,0,0,0,1.021-2.552,24.989,24.989,0,0,0-22.973-15.124H334.464a1.939,1.939,0,1,0,0,3.878Z" transform="translate(-332.525 -346.638)" fill="#dac27a" stroke="#dac27a" stroke-width="1"/>
    </g>
    <g id="Group_3024" data-name="Group 3024" transform="translate(3712.822 16650.441)">
      <path id="Path_16591" data-name="Path 16591" d="M424.53,407.87H422.8l-5.428-4.806h3.7Zm7.005-50.13A10.642,10.642,0,0,0,420.9,368.363v13.444H369.389V356.023a1.939,1.939,0,0,0-3.878,0v25.784H327.294a1.939,1.939,0,1,0,0,3.878h95.548a1.938,1.938,0,0,0,1.939-1.939V368.363a6.75,6.75,0,0,1,13.5,0v24.068a6.765,6.765,0,0,1-6.745,6.755H406.094a1.939,1.939,0,1,0,0,3.878h5.446l9.25,8.2a1.976,1.976,0,0,0,1.28.483h6.235a1.935,1.935,0,0,0,1.577-3.071l-4.027-5.613h5.678a10.642,10.642,0,0,0,10.624-10.633V368.363A10.634,10.634,0,0,0,431.535,357.739Z" transform="translate(-325.354 -354.084)" fill="#dac27a" stroke="#dac27a" stroke-width="1"/>
    </g>
    <g id="Group_3025" data-name="Group 3025" transform="translate(3704.879 16678.164)">
      <path id="Path_16592" data-name="Path 16592" d="M323.727,366.534a1.939,1.939,0,1,0,0,3.878h.974a1.939,1.939,0,1,0,0-3.878Z" transform="translate(-321.788 -366.534)" fill="#dac27a" stroke="#dac27a" stroke-width="1"/>
    </g>
    <g id="Group_3026" data-name="Group 3026" transform="translate(3680.199 16619.035)">
      <path id="Path_16593" data-name="Path 16593" d="M409.063,416.488H321.328a6.759,6.759,0,0,1-6.745-6.755V385.666a6.75,6.75,0,0,1,13.5,0v15.383a1.939,1.939,0,1,0,3.878,0V379.8a21.133,21.133,0,0,1,21.108-21.117,1.939,1.939,0,0,0,0-3.878,25.01,25.01,0,0,0-24.875,22.76,10.492,10.492,0,0,0-4.927-2.338V341.919a1.939,1.939,0,0,0-3.878,0v33.309a10.628,10.628,0,0,0-8.684,10.438v24.068a10.648,10.648,0,0,0,10.624,10.633h5.688l-4.045,5.613a1.949,1.949,0,0,0,1.577,3.071h6.244a1.982,1.982,0,0,0,1.29-.482l3.748-3.331a1.939,1.939,0,0,0-2.57-2.9l-3.21,2.839h-1.726l3.461-4.806h77.279a1.939,1.939,0,0,0,0-3.878Z" transform="translate(-310.704 -339.979)" fill="#dac27a" stroke="#dac27a" stroke-width="1"/>
    </g>
    <g id="Group_3027" data-name="Group 3027" transform="translate(3782.956 16695.543)">
      <path id="Path_16594" data-name="Path 16594" d="M359.7,374.338h-.909a1.939,1.939,0,1,0,0,3.878h.909a1.939,1.939,0,1,0,0-3.878Z" transform="translate(-356.85 -374.338)" fill="#dac27a" stroke="#dac27a" stroke-width="1"/>
    </g>
    <g id="Group_3028" data-name="Group 3028" transform="translate(3752.978 16642.295)">
      <path id="Path_16595" data-name="Path 16595" d="M343.388,352.364v.984a1.939,1.939,0,1,0,3.878,0v-.984a1.939,1.939,0,0,0-3.878,0Z" transform="translate(-343.388 -350.425)" fill="#dac27a" stroke="#dac27a" stroke-width="1"/>
    </g>
    <g id="Group_3029" data-name="Group 3029" transform="translate(3677.085 16589.324)">
      <path id="Path_16596" data-name="Path 16596" d="M313.562,349.666l3.433-19.15H329.1l3.433,19.15Zm22.778,3.182a1.953,1.953,0,0,0,.417-1.587l-4.12-23.038a1.948,1.948,0,0,0-1.911-1.587H315.371a1.941,1.941,0,0,0-1.911,1.587l-4.12,23.038a1.935,1.935,0,0,0,1.9,2.282h23.6A1.94,1.94,0,0,0,336.34,352.849Z" transform="translate(-309.306 -326.638)" fill="#dac27a" stroke="#dac27a" stroke-width="1"/>
    </g>
    <g id="Group_3030" data-name="Group 3030" transform="translate(3741.121 16575.861)">
      <path id="Path_16597" data-name="Path 16597" d="M340,350.1h25.627a1.944,1.944,0,0,0,1.939-1.939v-18.1a1.939,1.939,0,1,0-3.878,0v16.163H341.941V324.47h23.687a1.939,1.939,0,0,0,0-3.878H340a1.932,1.932,0,0,0-1.939,1.939v25.627A1.938,1.938,0,0,0,340,350.1Z" transform="translate(-338.063 -320.592)" fill="#dac27a" stroke="#dac27a" stroke-width="1"/>
    </g>
    <g id="Group_3031" data-name="Group 3031" transform="translate(3782.752 16556.211)">
      <path id="Path_16598" data-name="Path 16598" d="M360.637,315.645h21.739v21.748H360.637ZM358.7,341.272h25.617a1.938,1.938,0,0,0,1.939-1.939V313.706a1.938,1.938,0,0,0-1.939-1.939H358.7a1.932,1.932,0,0,0-1.939,1.939v25.627A1.932,1.932,0,0,0,358.7,341.272Z" transform="translate(-356.759 -311.767)" fill="#dac27a" stroke="#dac27a" stroke-width="1"/>
    </g>
  </g>
</svg>
