<svg id="Group_2672" data-name="Group 2672" xmlns="http://www.w3.org/2000/svg" width="162.644" height="151.026" viewBox="0 0 162.644 151.026">
  <path id="Path_16332" data-name="Path 16332" d="M255.358,267.218H115.031a1.263,1.263,0,0,1-1.223-1.3V156.591a1.265,1.265,0,0,1,1.223-1.3H254a16.546,16.546,0,0,0,10.833-4.037V257.508A9.607,9.607,0,0,1,255.358,267.218Zm-33.9-139.409H254a10.836,10.836,0,0,1,0,21.672h-32.54Zm49.182,10.833A16.659,16.659,0,0,0,254,122h-32.54a5.815,5.815,0,0,0-5.809,5.809v21.672H115.031a7.08,7.08,0,0,0-7.031,7.11V265.919a7.078,7.078,0,0,0,7.031,7.107H255.358a15.419,15.419,0,0,0,15.286-15.518V138.642Z" transform="translate(-108 -122)" fill="#dac27a"/>
  <path id="Path_16333" data-name="Path 16333" d="M215,169.9h7.415v20.3H215v5.809h7.415v21.873H160.98V196.009h7.415V190.2H160.98V175.937h-5.809v41.945h-32.54v-39.04h12.744v-5.809H122.631v-29.07h31.164v14.8h5.812v-14.8h24.24V169.9h15V164.1h-9.2V138.154H116.822V223.69h111.4V164.1H215Z" transform="translate(-91.2 -91.237)" fill="#dac27a"/>
</svg>
