<svg xmlns="http://www.w3.org/2000/svg" width="960" height="595" viewBox="0 0 960 595">
  <g id="Group_5291" data-name="Group 5291" transform="translate(0 -3554)">
    <rect id="Rectangle_445" data-name="Rectangle 445" width="960" height="595" transform="translate(0 3554)" fill="#06586d"/>
    <g id="Group_5102" data-name="Group 5102" transform="translate(-6486.824 -4649)" opacity="0.71">
      <g id="Group_2361" data-name="Group 2361" transform="translate(6720.824 8248)">
        <g id="Group_2347" data-name="Group 2347" transform="translate(31.074 74.876)">
          <g id="Group_2346" data-name="Group 2346" transform="translate(0 0)">
            <path id="Path_15816" data-name="Path 15816" d="M-1.385,22.11c13.066,10.28,51.577,39.364,86.716,65.8,22.555-18.051,40.559-32.416,44.206-35.33,3.538-3.348,18.218-15.921,44.982-22.016l.691-.155.7-.085c1.994-.24,13.8-1.137,50.673,4.818C252.746,39.37,371,61.3,439.633,74.09,382.671,35,285.469-31.588,264.152-45.477c-24.118-15.712-34.29-20.324-36.769-21.344-20.068-3.685-33.289.69-34.344,1.059l-.822.345-.663.136c-1.532.4-153.814,40.28-185.5,49.4C-11.39-10.869-17.946-4.2-20.092-1.279c.885,3.522,4.442,12.17,18.706,23.389" transform="translate(20.092 68.288)" fill="#054454"/>
          </g>
        </g>
        <g id="Group_2349" data-name="Group 2349" transform="translate(28.54 265.281)">
          <g id="Group_2348" data-name="Group 2348" transform="translate(0 0)">
            <path id="Path_15817" data-name="Path 15817" d="M-16,150.375l.935.213.57.221c1.086.345,14.625,4.368,34.845.008,2.463-1.1,12.612-6.075,36.551-22.741,21.221-14.769,118.217-85.692,174.48-126.9C163.918,15.9,47.9,41.127,22.184,46.1c-29,5.6-42.305,6.385-47.484,6.385-1.3,0-2.091-.05-2.486-.085l-.706-.062-.691-.136C-55.839,46.981-70.751,34.993-74.37,31.774c-3.945-2.956-24.336-18.229-49.23-36.932-35.88,28.746-76.765,61.62-90.231,72.9-14.183,11.883-17.485,20.8-18.249,24.378,2.239,2.894,9.078,9.5,27.008,14.071,32.32,8.228,187.507,43.822,189.07,44.182" transform="translate(232.079 5.158)" fill="#054454"/>
          </g>
        </g>
        <g id="Group_2351" data-name="Group 2351" transform="translate(30.294 142.89)">
          <g id="Group_2350" data-name="Group 2350" transform="translate(0 0)">
            <path id="Path_15818" data-name="Path 15818" d="M-.008-.779c-.016.027-.027.05-.043.078l-.07.648Z" transform="translate(0.121 0.779)" fill="#054454"/>
          </g>
        </g>
        <g id="Group_2353" data-name="Group 2353" transform="translate(158.803 200.309)">
          <g id="Group_2352" data-name="Group 2352" transform="translate(0 0)">
            <path id="Path_15819" data-name="Path 15819" d="M-5.32-102.584c-20.13,4.83-30.6,14.338-31.407,15.1l-.613.648-.551.392c-.458.361-17.058,13.609-39.267,31.377C-52.493-36.541-33.484-22.3-32.991-21.936l.768.574.431.431c.853.756,11.452,9.78,31.4,13.927,2.68-.008,13.845-.446,42.107-5.9,25.5-4.926,144.993-30.915,211.8-45.493C185.624-71.053,63.478-93.72,37.478-97.917c-28.8-4.656-40.1-4.737-42.8-4.667" transform="translate(77.158 102.596)" fill="#054454"/>
          </g>
        </g>
        <g id="Group_2355" data-name="Group 2355" transform="translate(55.184 306.791)">
          <g id="Group_2354" data-name="Group 2354" transform="translate(0 0)">
            <path id="Path_15820" data-name="Path 15820" d="M-20.569,32.324C-51.212,53.656-62.246,57.967-64.146,58.614l-.672.229L-65.5,59a114.916,114.916,0,0,1-25.554,2.96c-12.871,0-21.565-2.374-24.525-3.321C-127.3,55.949-257.119,26.159-298.346,16.023A247.853,247.853,0,0,0-105.2,108.278c117,0,215.089-80.928,241.38-189.858C79.225-39.887-1.033,18.726-20.569,32.324" transform="translate(298.346 81.579)" fill="#054454"/>
          </g>
        </g>
        <g id="Group_2357" data-name="Group 2357" transform="translate(47.76 0)">
          <g id="Group_2356" data-name="Group 2356" transform="translate(0 0)">
            <path id="Path_15821" data-name="Path 15821" d="M-.147,14.194c31.283-9,173.3-46.211,185.5-49.4,4.566-1.618,22.9-7.1,49.555-1.882l.691.136.671.209c1.9.582,12.957,4.512,43.911,24.677C299.819.728,380.387,55.858,437.9,95.3,409.024-9.851,312.757-87.117,198.431-87.117A247.964,247.964,0,0,0-2.138,14.795c.66-.2,1.311-.407,1.99-.6" transform="translate(2.138 87.117)" fill="#054454"/>
          </g>
        </g>
        <g id="Group_2359" data-name="Group 2359" transform="translate(0 166.83)">
          <g id="Group_2358" data-name="Group 2358" transform="translate(0 0)">
            <path id="Path_15822" data-name="Path 15822" d="M-2.179,134.621c13.116-10.986,50.754-41.273,85.285-68.949-33.611-25.3-68.952-52.011-81.65-62a97.846,97.846,0,0,1-19.37-19.684,249.224,249.224,0,0,0,.9,165.542A107.614,107.614,0,0,1-2.179,134.621" transform="translate(31.613 16.013)" fill="#054454"/>
          </g>
        </g>
      </g>
    </g>
  </g>
</svg>
