<svg id="linkedin" xmlns="http://www.w3.org/2000/svg" width="18.571" height="18.572" viewBox="0 0 18.571 18.572">
  <path id="Path_18883" data-name="Path 18883" d="M20.487,20.285h0V13.473c0-3.332-.717-5.9-4.613-5.9a4.044,4.044,0,0,0-3.642,2h-.054V7.885H8.489v12.4h3.846V14.144c0-1.616.306-3.18,2.308-3.18,1.972,0,2,1.845,2,3.283v6.036Z" transform="translate(-1.92 -1.713)" fill="#dac27a"/>
  <path id="Path_18884" data-name="Path 18884" d="M.4,7.977h3.85v12.4H.4Z" transform="translate(-0.09 -1.804)" fill="#dac27a"/>
  <path id="Path_18885" data-name="Path 18885" d="M2.23,0A2.241,2.241,0,1,0,4.46,2.23,2.231,2.231,0,0,0,2.23,0Z" fill="#dac27a"/>
</svg>
