<svg id="Group_2361" data-name="Group 2361" xmlns="http://www.w3.org/2000/svg" width="36.323" height="36.667" viewBox="0 0 36.323 36.667">
  <g id="Group_2347" data-name="Group 2347" transform="translate(2.294 5.528)">
    <g id="Group_2346" data-name="Group 2346" transform="translate(0 0)">
      <path id="Path_15816" data-name="Path 15816" d="M-18.711-61.614c.965.759,3.808,2.906,6.4,4.858,1.665-1.333,2.994-2.393,3.264-2.608A7.233,7.233,0,0,1-5.724-60.99L-5.673-61l.052-.006a16.294,16.294,0,0,1,3.741.356c1.932.312,10.662,1.932,15.729,2.876C9.644-60.662,2.467-65.579.893-66.6A19.074,19.074,0,0,0-1.821-68.18a5.291,5.291,0,0,0-2.536.078l-.061.025-.049.01c-.113.029-11.356,2.974-13.7,3.647a3.51,3.51,0,0,0-1.93,1.078,3.507,3.507,0,0,0,1.381,1.727" transform="translate(20.092 68.288)" fill="#093d62"/>
    </g>
  </g>
  <g id="Group_2349" data-name="Group 2349" transform="translate(2.107 19.585)">
    <g id="Group_2348" data-name="Group 2348" transform="translate(0 0)">
      <path id="Path_15817" data-name="Path 15817" d="M-216.127,6.324l.069.016.042.016a5.36,5.36,0,0,0,2.573,0,19.243,19.243,0,0,0,2.7-1.679c1.567-1.09,8.728-6.326,12.882-9.369-4.981,1.087-13.546,2.949-15.445,3.316a20.386,20.386,0,0,1-3.506.471c-.1,0-.154,0-.184-.006l-.052,0-.051-.01a7.164,7.164,0,0,1-3.336-1.508c-.291-.218-1.8-1.346-3.635-2.727-2.649,2.122-5.667,4.549-6.662,5.382a3.544,3.544,0,0,0-1.347,1.8,3.543,3.543,0,0,0,1.994,1.039c2.386.607,13.843,3.235,13.959,3.262" transform="translate(232.079 5.158)" fill="#093d62"/>
    </g>
  </g>
  <g id="Group_2351" data-name="Group 2351" transform="translate(2.237 10.549)">
    <g id="Group_2350" data-name="Group 2350" transform="translate(0 0)">
      <path id="Path_15818" data-name="Path 15818" d="M-.113-.779l0,.006-.005.048Z" transform="translate(0.121 0.779)" fill="#093d62"/>
    </g>
  </g>
  <g id="Group_2353" data-name="Group 2353" transform="translate(11.724 14.788)">
    <g id="Group_2352" data-name="Group 2352" transform="translate(0 0)">
      <path id="Path_15819" data-name="Path 15819" d="M-71.855-102.6a5.359,5.359,0,0,0-2.319,1.115l-.045.048-.041.029c-.034.027-1.259,1-2.9,2.316,1.821,1.368,3.224,2.419,3.261,2.446l.057.042.032.032a5.288,5.288,0,0,0,2.318,1.028,19.044,19.044,0,0,0,3.109-.436c1.883-.364,10.7-2.282,15.637-3.359-5.013-.934-14.031-2.607-15.95-2.917a19.266,19.266,0,0,0-3.16-.345" transform="translate(77.158 102.596)" fill="#093d62"/>
    </g>
  </g>
  <g id="Group_2355" data-name="Group 2355" transform="translate(4.074 22.65)">
    <g id="Group_2354" data-name="Group 2354" transform="translate(0 0)">
      <path id="Path_15820" data-name="Path 15820" d="M-277.838-73.17a16.308,16.308,0,0,1-3.217,1.941l-.05.017-.051.011a8.483,8.483,0,0,1-1.887.219,6.112,6.112,0,0,1-1.811-.245c-.865-.2-10.449-2.4-13.493-3.146a18.3,18.3,0,0,0,14.26,6.811,18.339,18.339,0,0,0,17.821-14.017c-4.205,3.078-10.13,7.405-11.573,8.409" transform="translate(298.346 81.579)" fill="#093d62"/>
    </g>
  </g>
  <g id="Group_2357" data-name="Group 2357" transform="translate(3.526 0)">
    <g id="Group_2356" data-name="Group 2356" transform="translate(0 0)">
      <path id="Path_15821" data-name="Path 15821" d="M-1.991-79.637C.319-80.3,10.8-83.049,11.7-83.285a7.168,7.168,0,0,1,3.659-.139l.051.01.05.015a16.109,16.109,0,0,1,3.242,1.822c1.45.945,7.4,5.015,11.644,7.927A18.34,18.34,0,0,0,12.67-87.117,18.307,18.307,0,0,0-2.138-79.593l.147-.044" transform="translate(2.138 87.117)" fill="#093d62"/>
    </g>
  </g>
  <g id="Group_2359" data-name="Group 2359" transform="translate(0 12.317)">
    <g id="Group_2358" data-name="Group 2358" transform="translate(0 0)">
      <path id="Path_15822" data-name="Path 15822" d="M-29.44-4.892c.968-.811,3.747-3.047,6.3-5.09-2.481-1.868-5.091-3.84-6.028-4.577a7.224,7.224,0,0,1-1.43-1.453A18.308,18.308,0,0,0-31.613-10a18.3,18.3,0,0,0,1.078,6.205,7.945,7.945,0,0,1,1.095-1.1" transform="translate(31.613 16.013)" fill="#093d62"/>
    </g>
  </g>
</svg>
