<svg xmlns="http://www.w3.org/2000/svg" width="156" height="107.503" viewBox="0 0 156 107.503">
  <g id="Group_2668" data-name="Group 2668" transform="translate(-884 -46)">
    <g id="Group_2360" data-name="Group 2360" transform="translate(884 100.189)">
      <g id="Group_2319" data-name="Group 2319" transform="translate(0 38.708)">
        <g id="Group_2318" data-name="Group 2318" transform="translate(0 0)">
          <path id="Path_15802" data-name="Path 15802" d="M-122.52-179.4a3.457,3.457,0,0,0-1.464-1.244A4.377,4.377,0,0,0-125-180.97a5.992,5.992,0,0,0-1.113-.1q-.421,0-.682.021c-.174.013-.308.027-.4.04-.014.08-.027.15-.04.21a1.642,1.642,0,0,0-.03.231c-.007.094-.013.224-.02.391s-.017.4-.03.712q-.02.7-.03,1.586t-.01,1.705v2.207q.822,0,1.535-.071a6.279,6.279,0,0,0,1.375-.291,3.68,3.68,0,0,0,1.1-.542,3.141,3.141,0,0,0,.752-.772,3.216,3.216,0,0,0,.432-.933,3.874,3.874,0,0,0,.14-1.043,3.235,3.235,0,0,0-.5-1.786m1.986,12.5q-.181-.181-.261-.271c-.054-.06-.114-.13-.181-.21a4.03,4.03,0,0,1-.251-.352c-.1-.153-.258-.384-.471-.692q-.381-.561-.672-1.013t-.591-.893q-.3-.44-.652-.893t-.832-1.014a8.4,8.4,0,0,0-.873-.863,2.162,2.162,0,0,0-.993-.5,3.084,3.084,0,0,0-.582-.08c-.12,0-.274-.006-.461-.02v2.267q0,.964.02,1.625.02.643.04,1.1a1.458,1.458,0,0,0,.221.762,1.762,1.762,0,0,0,.622.532,2.826,2.826,0,0,0,1.283.311v.2h-6.42v-.2a5.608,5.608,0,0,0,.963-.241,1.56,1.56,0,0,0,.722-.482.906.906,0,0,0,.161-.36,3.809,3.809,0,0,0,.09-.542q.03-.3.05-.642t.02-.662q0-.28.01-.762t.02-1.053q.009-.572.009-1.174V-178.1c0-.241,0-.485-.009-.733s-.02-.481-.04-.7a3.788,3.788,0,0,0-.1-.6.85.85,0,0,0-.19-.391,1.508,1.508,0,0,0-.672-.431,6.824,6.824,0,0,0-.913-.191v-.2h.822q.682,0,1.544-.01t1.726-.011h1.4q1.344,0,2.388.08a4.775,4.775,0,0,1,1.906.542,3.857,3.857,0,0,1,1.424,1.254,3.458,3.458,0,0,1,.542,2,3.167,3.167,0,0,1-.271,1.334,3.563,3.563,0,0,1-.722,1.044,4.433,4.433,0,0,1-1.053.772,8.178,8.178,0,0,1-1.264.542v.06a2.6,2.6,0,0,1,.662.522,7.3,7.3,0,0,1,.622.762q.521.763,1.133,1.646t1.093,1.565a6.161,6.161,0,0,0,1.445,1.525,3.868,3.868,0,0,0,1.646.622v.2Z" transform="translate(131.588 181.371)" fill="#fff"/>
        </g>
      </g>
      <g id="Group_2321" data-name="Group 2321" transform="translate(19.717 38.728)">
        <g id="Group_2320" data-name="Group 2320" transform="translate(0 0)">
          <path id="Path_15803" data-name="Path 15803" d="M-165.9,14.445h-12.278v-.2a4.083,4.083,0,0,0,.933-.261,1.909,1.909,0,0,0,.712-.5.9.9,0,0,0,.161-.351q.06-.231.11-.532a6.25,6.25,0,0,0,.07-.632q.02-.33.02-.652,0-.281.01-.762t.02-1.053q.01-.572.01-1.174V3.251c0-.241,0-.488-.01-.743s-.02-.494-.04-.722a3.849,3.849,0,0,0-.1-.612.853.853,0,0,0-.19-.391,1.377,1.377,0,0,0-.643-.411,8.437,8.437,0,0,0-.882-.17V0h11.075l1.364,3.31-.2.1A9.778,9.778,0,0,0-168.806.682,4.891,4.891,0,0,0-170.07.4a17.764,17.764,0,0,0-2.247-.121q-.421,0-.873.03a5.76,5.76,0,0,0-.652.07q-.041.321-.07,1.324t-.03,2.328V5.316c0,.349,0,.632.011.853s.01.391.01.511V6.9h.4q.3,0,.692-.02t.783-.05a4.471,4.471,0,0,0,.652-.09,3.5,3.5,0,0,0,1-.381,2.206,2.206,0,0,0,.652-.582,2.871,2.871,0,0,0,.4-.792,9.628,9.628,0,0,0,.27-1.014h.241v6.32h-.241a6.8,6.8,0,0,0-.492-1.324,3.522,3.522,0,0,0-.692-1.023,2.661,2.661,0,0,0-.773-.462,3.463,3.463,0,0,0-1.053-.221c-.2-.013-.368-.023-.5-.03s-.267-.01-.4-.01h-.923a6.216,6.216,0,0,0-.04.823v2.408q0,.321.011.612c.006.194.01.358.01.491q.02.643.07,1.213a1.916,1.916,0,0,0,.231.853,1.261,1.261,0,0,0,.862.4,8.566,8.566,0,0,0,1.484.121q.341,0,.873-.021a11.071,11.071,0,0,0,1.114-.1,4.389,4.389,0,0,0,1.184-.311,4.154,4.154,0,0,0,1.043-.652,6.581,6.581,0,0,0,.973-1.034,13.808,13.808,0,0,0,.973-1.474l.22.06Z" transform="translate(178.175)" fill="#fff"/>
        </g>
      </g>
      <g id="Group_2323" data-name="Group 2323" transform="translate(38.227 38.508)">
        <g id="Group_2322" data-name="Group 2322" transform="translate(0 0)">
          <path id="Path_15804" data-name="Path 15804" d="M-128.894-21.916a3.9,3.9,0,0,1-1.083,1.3,4.6,4.6,0,0,1-1.656.8,8.047,8.047,0,0,1-2.106.261,10.161,10.161,0,0,1-1.686-.121,6.638,6.638,0,0,1-1.164-.291,4.1,4.1,0,0,1-.691-.311.918.918,0,0,0-.291-.141c-.04,0-.127.081-.261.241s-.254.314-.361.461h-.18l-.061-3.993h.2a6.387,6.387,0,0,0,.462,1.053,8.67,8.67,0,0,0,.612.963,5.406,5.406,0,0,0,.7.792,3.466,3.466,0,0,0,.712.522,5.69,5.69,0,0,0,.9.361,3.523,3.523,0,0,0,1.084.181,3.512,3.512,0,0,0,2.407-.813,2.778,2.778,0,0,0,.923-2.2,2.48,2.48,0,0,0-.181-.983,2.3,2.3,0,0,0-.492-.732,3,3,0,0,0-.732-.532,8.065,8.065,0,0,0-.9-.4c-.321-.12-.6-.221-.843-.3s-.465-.157-.672-.231-.422-.147-.643-.221-.485-.17-.792-.291a4.371,4.371,0,0,1-1-.552,4.09,4.09,0,0,1-.842-.822,4.156,4.156,0,0,1-.582-1.044,3.326,3.326,0,0,1-.221-1.213,4.094,4.094,0,0,1,.4-1.866,3.815,3.815,0,0,1,1.063-1.3,4.481,4.481,0,0,1,1.54-.772,6.635,6.635,0,0,1,1.836-.251,6.875,6.875,0,0,1,1.545.15,6.227,6.227,0,0,1,1.053.331,3.573,3.573,0,0,1,.622.331,1.432,1.432,0,0,0,.231.151c.04,0,.123-.08.251-.241s.243-.32.351-.481h.221V-30.4h-.221a8.125,8.125,0,0,0-.622-1.315,5.986,5.986,0,0,0-.883-1.163,4.276,4.276,0,0,0-1.144-.833,3.144,3.144,0,0,0-1.424-.321,3.76,3.76,0,0,0-1.174.181,2.729,2.729,0,0,0-.963.542,2.485,2.485,0,0,0-.642.893,3.021,3.021,0,0,0-.231,1.214,2.307,2.307,0,0,0,.64,1.705,4.559,4.559,0,0,0,1.661,1.024q.4.16.75.281c.233.08.464.157.691.231s.457.151.691.231.477.167.73.261a4.66,4.66,0,0,1,2.112,1.454,3.725,3.725,0,0,1,.751,2.377,3.718,3.718,0,0,1-.392,1.726" transform="translate(138.433 34.354)" fill="#fff"/>
        </g>
      </g>
      <g id="Group_2325" data-name="Group 2325" transform="translate(53.132 38.728)">
        <g id="Group_2324" data-name="Group 2324" transform="translate(0 0)">
          <path id="Path_15805" data-name="Path 15805" d="M0,14.445v-.2a4.1,4.1,0,0,0,.933-.261,1.986,1.986,0,0,0,.732-.522.806.806,0,0,0,.15-.341A4.584,4.584,0,0,0,1.9,12.6q.03-.3.04-.632t.01-.652q0-.281.01-.762T1.976,9.5q.009-.572.01-1.174v-5.8c0-.241-.01-.465-.03-.672a4.181,4.181,0,0,0-.09-.562A.934.934,0,0,0,1.685.9,1.6,1.6,0,0,0,.993.411,4.09,4.09,0,0,0,.06.2V0h6V.2a5.184,5.184,0,0,0-.9.221,1.292,1.292,0,0,0-.742.642,1.912,1.912,0,0,0-.191.862c-.007.349-.017.676-.03.983q0,.5-.01.993t-.01.993v6.721q0,.582.02,1.124a1.436,1.436,0,0,0,.18.762,1.5,1.5,0,0,0,.763.522,4.111,4.111,0,0,0,.943.221v.2Z" fill="#fff"/>
        </g>
      </g>
      <g id="Group_2327" data-name="Group 2327" transform="translate(64.571 38.708)">
        <g id="Group_2326" data-name="Group 2326" transform="translate(0 0)">
          <path id="Path_15806" data-name="Path 15806" d="M-173.489-135.218a7.267,7.267,0,0,0-1-2,6.423,6.423,0,0,0-1.525-1.515,4.687,4.687,0,0,0-1.926-.8q-.4-.08-.883-.131a11.831,11.831,0,0,0-1.183-.05q-.241,0-.522.01c-.187.007-.371.02-.552.04s-.348.037-.5.05a2.053,2.053,0,0,0-.371.06q-.1.983-.121,2.709t-.02,4.112v2.348q0,1.044.02,1.706,0,.281.03.612t.07.642a2.653,2.653,0,0,0,.13.562,1,1,0,0,0,.21.371,1.855,1.855,0,0,0,1.013.511,6.49,6.49,0,0,0,1.154.111q.5,0,1.033-.051a4.99,4.99,0,0,0,.993-.191,5.323,5.323,0,0,0,3.241-2.417,8.49,8.49,0,0,0,1.073-4.424,7.248,7.248,0,0,0-.361-2.267m2.468,4.875a6.456,6.456,0,0,1-.983,1.966,5.8,5.8,0,0,1-1.444,1.364,7.851,7.851,0,0,1-1.746.863,9.618,9.618,0,0,1-1.906.451,14.484,14.484,0,0,1-1.906.13h-7.323v-.2a3.544,3.544,0,0,0,.973-.261,1.892,1.892,0,0,0,.712-.482.681.681,0,0,0,.151-.341q.05-.241.09-.542t.06-.642q.02-.341.02-.662,0-.28.01-.762t.02-1.053q.01-.572.01-1.174v-5.8q0-.361-.03-.672a4.174,4.174,0,0,0-.09-.562.941.941,0,0,0-.181-.392,1.582,1.582,0,0,0-.722-.5,4.7,4.7,0,0,0-.943-.2v-.2q.843,0,2.428-.01t3.832-.011h1.284q.662,0,1.324.061a11.324,11.324,0,0,1,1.324.2,6.75,6.75,0,0,1,1.3.422,7.536,7.536,0,0,1,1.585.923,6.157,6.157,0,0,1,1.294,1.334,6.544,6.544,0,0,1,.883,1.786,7.46,7.46,0,0,1,.331,2.317,8.813,8.813,0,0,1-.361,2.648" transform="translate(186.329 140.033)" fill="#fff"/>
        </g>
      </g>
      <g id="Group_2329" data-name="Group 2329" transform="translate(84.779 38.728)">
        <g id="Group_2328" data-name="Group 2328" transform="translate(0 0)">
          <path id="Path_15807" data-name="Path 15807" d="M-165.9,14.445h-12.278v-.2a4.092,4.092,0,0,0,.933-.261,1.911,1.911,0,0,0,.712-.5.9.9,0,0,0,.16-.351q.06-.231.111-.532a6.33,6.33,0,0,0,.07-.632c.013-.22.02-.438.02-.652q0-.281.01-.762t.02-1.053q.009-.572.01-1.174V3.251c0-.241,0-.488-.01-.743s-.02-.494-.04-.722a3.789,3.789,0,0,0-.1-.612.856.856,0,0,0-.19-.391,1.378,1.378,0,0,0-.643-.411,8.436,8.436,0,0,0-.882-.17V0h11.075l1.364,3.31-.2.1A9.781,9.781,0,0,0-168.806.682,4.894,4.894,0,0,0-170.07.4a17.766,17.766,0,0,0-2.247-.121q-.421,0-.873.03a5.769,5.769,0,0,0-.652.07q-.041.321-.07,1.324t-.03,2.328V5.316c0,.349,0,.632.01.853s.01.391.01.511V6.9h.4c.2,0,.432-.007.692-.02s.522-.03.782-.05a4.475,4.475,0,0,0,.652-.09,3.5,3.5,0,0,0,1-.381,2.2,2.2,0,0,0,.652-.582,2.869,2.869,0,0,0,.4-.792,9.561,9.561,0,0,0,.27-1.014h.242v6.32h-.242a6.8,6.8,0,0,0-.492-1.324,3.522,3.522,0,0,0-.691-1.023,2.668,2.668,0,0,0-.773-.462,3.465,3.465,0,0,0-1.053-.221c-.2-.013-.368-.023-.5-.03s-.267-.01-.4-.01h-.923a6.291,6.291,0,0,0-.04.823v2.408q0,.321.01.612c.006.194.01.358.01.491q.02.643.07,1.213a1.916,1.916,0,0,0,.231.853,1.262,1.262,0,0,0,.863.4,8.563,8.563,0,0,0,1.484.121q.341,0,.873-.021a11.079,11.079,0,0,0,1.114-.1,4.387,4.387,0,0,0,1.184-.311,4.149,4.149,0,0,0,1.043-.652,6.568,6.568,0,0,0,.974-1.034,13.763,13.763,0,0,0,.973-1.474l.221.06Z" transform="translate(178.175)" fill="#fff"/>
        </g>
      </g>
      <g id="Group_2331" data-name="Group 2331" transform="translate(102.478 38.729)">
        <g id="Group_2330" data-name="Group 2330" transform="translate(0 0)">
          <path id="Path_15808" data-name="Path 15808" d="M-204.25-201.46a1.775,1.775,0,0,0-.692.863,3.368,3.368,0,0,0-.181,1.114q-.04.813-.08,1.735-.04.864-.07,2.037t-.03,2.518v1.284q0,.7.01,1.434t.01,1.455v1.3a.178.178,0,0,1-.05.131.207.207,0,0,1-.151.05.551.551,0,0,1-.361-.2q-1.706-1.966-3.11-3.611t-2.678-3.14q-1.274-1.494-2.5-2.919t-2.588-2.949v8.466q0,1.023.05,1.846a3.309,3.309,0,0,0,.251,1.224,1.449,1.449,0,0,0,.692.692,4.144,4.144,0,0,0,1.294.331v.2h-4.936v-.2a3.941,3.941,0,0,0,.963-.251,1.566,1.566,0,0,0,.762-.632,2.755,2.755,0,0,0,.361-1.244q.08-.822.12-1.966.04-.862.061-2.037t.02-2.518v-2.447q0-.4-.02-.983a2.344,2.344,0,0,0-.281-.954,1.854,1.854,0,0,0-.521-.581,2.007,2.007,0,0,0-.652-.3,5.606,5.606,0,0,0-.672-.13v-.2h4.072l9.51,11.114v-6.821q0-.8-.021-1.534a3.623,3.623,0,0,0-.18-1.154,1.842,1.842,0,0,0-.712-.913,3.535,3.535,0,0,0-1.475-.492v-.2h4.975v.2a3.036,3.036,0,0,0-1.194.381" transform="translate(219.367 202.042)" fill="#fff"/>
        </g>
      </g>
      <g id="Group_2333" data-name="Group 2333" transform="translate(122.666 38.427)">
        <g id="Group_2332" data-name="Group 2332" transform="translate(0 0)">
          <path id="Path_15809" data-name="Path 15809" d="M-186.222-138.278a6.752,6.752,0,0,0-.783-1.805,6.4,6.4,0,0,0-1.233-1.465,5.639,5.639,0,0,0-1.6-.983,5.02,5.02,0,0,0-1.9-.36,4.86,4.86,0,0,0-2.468.622,5.689,5.689,0,0,0-1.816,1.645,7.839,7.839,0,0,0-1.123,2.317,9.117,9.117,0,0,0-.392,2.658,8.7,8.7,0,0,0,.411,2.709,6.7,6.7,0,0,0,1.174,2.2,5.58,5.58,0,0,0,1.846,1.475,5.305,5.305,0,0,0,2.408.542,5.023,5.023,0,0,0,1.956-.381,5.9,5.9,0,0,0,1.625-1,6.035,6.035,0,0,0,1.2-1.435,5.315,5.315,0,0,0,.672-1.675H-186l-.06,4.414h-.241a6.094,6.094,0,0,0-.5-.622q-.261-.28-.361-.281a1.764,1.764,0,0,0-.362.21,5.84,5.84,0,0,1-.923.462,8.76,8.76,0,0,1-1.464.441,9.3,9.3,0,0,1-1.986.19,10.053,10.053,0,0,1-3.371-.531,7.283,7.283,0,0,1-2.558-1.5,6.531,6.531,0,0,1-1.615-2.327A7.692,7.692,0,0,1-200-135.75a7.6,7.6,0,0,1,.051-.823,7.28,7.28,0,0,1,.18-.983,8.3,8.3,0,0,1,.361-1.093,7.537,7.537,0,0,1,.592-1.154,7.228,7.228,0,0,1,1.043-1.3,6.641,6.641,0,0,1,1.464-1.093,8.176,8.176,0,0,1,1.906-.752,9.341,9.341,0,0,1,2.387-.281,8.96,8.96,0,0,1,2.106.221,9.6,9.6,0,0,1,1.5.481,5.7,5.7,0,0,1,.923.482,1.751,1.751,0,0,0,.361.221.349.349,0,0,0,.15-.09c.073-.061.154-.133.241-.22s.177-.188.271-.3a4.264,4.264,0,0,0,.26-.351h.221v4.494Z" transform="translate(200.004 143.233)" fill="#fff"/>
        </g>
      </g>
      <g id="Group_2335" data-name="Group 2335" transform="translate(142.008 38.728)">
        <g id="Group_2334" data-name="Group 2334" transform="translate(0 0)">
          <path id="Path_15810" data-name="Path 15810" d="M-165.893,14.445h-12.278v-.2a4.091,4.091,0,0,0,.933-.261,1.908,1.908,0,0,0,.712-.5.9.9,0,0,0,.16-.351c.04-.154.077-.331.111-.532a6.309,6.309,0,0,0,.07-.632c.013-.22.02-.438.02-.652q0-.281.01-.762t.02-1.053q.01-.572.01-1.174V3.251c0-.241,0-.488-.01-.743s-.02-.494-.04-.722a3.819,3.819,0,0,0-.1-.612.856.856,0,0,0-.19-.391,1.378,1.378,0,0,0-.643-.411A8.441,8.441,0,0,0-177.99.2V0h11.075l1.364,3.31-.2.1A9.781,9.781,0,0,0-168.8.682,4.893,4.893,0,0,0-170.066.4a17.769,17.769,0,0,0-2.247-.121q-.421,0-.873.03a5.77,5.77,0,0,0-.652.07q-.041.321-.07,1.324t-.031,2.328V5.316c0,.349,0,.632.011.853s.01.391.01.511V6.9h.4c.2,0,.432-.007.692-.02s.522-.03.783-.05a4.48,4.48,0,0,0,.652-.09,3.5,3.5,0,0,0,1-.381,2.2,2.2,0,0,0,.652-.582,2.871,2.871,0,0,0,.4-.792,9.572,9.572,0,0,0,.27-1.014h.241v6.32h-.241a6.8,6.8,0,0,0-.492-1.324,3.528,3.528,0,0,0-.691-1.023,2.667,2.667,0,0,0-.773-.462,3.465,3.465,0,0,0-1.053-.221c-.2-.013-.368-.023-.5-.03s-.267-.01-.4-.01h-.923a6.231,6.231,0,0,0-.04.823v2.408q0,.321.011.612c.006.194.01.358.01.491q.02.643.07,1.213a1.917,1.917,0,0,0,.231.853,1.261,1.261,0,0,0,.862.4,8.569,8.569,0,0,0,1.484.121q.341,0,.873-.021a11.073,11.073,0,0,0,1.113-.1,4.387,4.387,0,0,0,1.184-.311,4.149,4.149,0,0,0,1.043-.652,6.583,6.583,0,0,0,.974-1.034,13.758,13.758,0,0,0,.973-1.474l.221.06Z" transform="translate(178.171)" fill="#fff"/>
        </g>
      </g>
      <g id="Group_2337" data-name="Group 2337" transform="translate(0 0)">
        <g id="Group_2336" data-name="Group 2336">
          <path id="Path_15811" data-name="Path 15811" d="M-202.95-483.229s-15.021,4.165-15.021,15.7a17.438,17.438,0,0,0,17.38,17.875c8.193,0,17.379-6.876,17.379-17.448s-11.545-16.125-14.152-16.125,2.483,1.709,3.724,2.456,2.359,3.311,2.359,13.883-1.366,16.339-9.31,16.339-9.062-3.952-9.062-16.446,3.352-14.417,4.965-14.844,4.717-1.709,1.738-1.388" transform="translate(217.971 483.28)" fill="#fff"/>
        </g>
      </g>
      <g id="Group_2339" data-name="Group 2339" transform="translate(111.222 32.064)">
        <g id="Group_2338" data-name="Group 2338" transform="translate(0 0)">
          <path id="Path_15812" data-name="Path 15812" d="M0,.026H.166c-.1,0-.162,0-.166,0" transform="translate(0 -0.025)" fill="#fff"/>
        </g>
      </g>
      <g id="Group_2341" data-name="Group 2341" transform="translate(95.604 0.05)">
        <g id="Group_2340" data-name="Group 2340" transform="translate(0 0)">
          <path id="Path_15813" data-name="Path 15813" d="M-498.532-151.223l4.154-11.149s.146-.874.583-.874.583.874.583.874l3.5,11.149Zm-17.416-5.976h-7.8v-14.146h7.87s3.789-.282,3.789,6.713-3.425,7.432-3.862,7.432m-14.283-14.146v30.534h-4.113c-.291,0-1.05,0-1.05.751s.764.749,1.067.749H-519.6c.294,0,1.092,0,1.092-.749s-.823-.75-1.139-.75h-4.1v-15.145h5.975c4.154,0,4.008,4.149,4.008,4.149v6.85c0,6.048,5.757,5.651,5.757,5.651l7.731-.006c.149,0,1.076,0,1.076-.746s-.786-.751-.938-.751h-2.112l3.133-8.664h10.129l2.984,8.664h-1.981c-.289,0-1.142,0-1.142.751s.813.749.991.749h12.1c.218,0,1,0,1-.749s-.879-.751-1.164-.751h-3.319l-11.145-31.4s-.219-.6-.583-.6-.729.672-.729.672l-11.881,31.327h-2.04s-.871-1.013-.871-7.644-7.87-8.162-7.87-8.162,9.182-.146,9.182-8.38-9.692-7.825-9.692-7.825h-19.139c.1,0,.168,0,.168,0h-.168c-.353.011-1.144.1-1.144.718,0,.582.71.722,1.085.757" transform="translate(535.43 172.824)" fill="#fff"/>
        </g>
      </g>
      <g id="Group_2343" data-name="Group 2343" transform="translate(65.097 0.058)">
        <g id="Group_2342" data-name="Group 2342" transform="translate(0 0)">
          <path id="Path_15814" data-name="Path 15814" d="M-76.8-463.4v30.534h-4.372c-.33,0-1.312,0-1.312.751s.988.75,1.306.75H-53v-10.748H-53.7v2.988c0,6.259-5.939,6.267-5.939,6.267h-11.04v-14.538h6.85c2.435,0,2.514,4.518,2.514,4.518h.875V-453.7h-.693s-.32,4.481-2.878,4.481h-6.74V-463.4H-59.38c6.012,0,5.5,7.442,5.5,7.442h.583v-8.905H-81.277s-.038,0-.1-.009c-.369.017-1.1.124-1.1.716s.71.722,1.085.757" transform="translate(82.479 464.871)" fill="#fff"/>
        </g>
      </g>
      <g id="Group_2345" data-name="Group 2345" transform="translate(35.257 0.063)">
        <g id="Group_2344" data-name="Group 2344" transform="translate(0 0)">
          <path id="Path_15815" data-name="Path 15815" d="M-234.817-212.314H-240.5v-16.177h5.574s5.793-.609,5.793,8.089-5.684,8.088-5.684,8.088m-15.662-17.648c.1,0,.168,0,.168,0h-.168c-.353.011-1.144.1-1.144.718a.572.572,0,0,0,.1.331,1.354,1.354,0,0,0,.2.188,1.662,1.662,0,0,0,.684.225h4.128v30.534H-251.1s-1.093,0-1.093.754.983.747.983.747h15.85s.972,0,.972-.757-1.09-.744-1.09-.744h-5.028l.008-13.146h7.651s9.947.328,9.947-8.963-9.838-9.889-12.133-9.889" transform="translate(252.196 229.964)" fill="#fff"/>
        </g>
      </g>
    </g>
    <g id="Group_2361" data-name="Group 2361" transform="translate(943.986 46)">
      <g id="Group_2347" data-name="Group 2347" transform="translate(2.3 5.542)">
        <g id="Group_2346" data-name="Group 2346" transform="translate(0 0)">
          <path id="Path_15816" data-name="Path 15816" d="M-18.707-61.6c.967.761,3.817,2.914,6.418,4.87,1.669-1.336,3-2.4,3.272-2.615a7.252,7.252,0,0,1,3.329-1.629l.051-.011.052-.006a16.336,16.336,0,0,1,3.751.357C.1-60.32,8.855-58.7,13.935-57.75,9.719-60.643,2.524-65.572.947-66.6a19.121,19.121,0,0,0-2.721-1.58,5.3,5.3,0,0,0-2.542.078l-.061.026-.049.01c-.113.03-11.385,2.981-13.73,3.656a3.518,3.518,0,0,0-1.935,1.081A3.516,3.516,0,0,0-18.707-61.6" transform="translate(20.092 68.288)" fill="#fff"/>
        </g>
      </g>
      <g id="Group_2349" data-name="Group 2349" transform="translate(2.112 19.635)">
        <g id="Group_2348" data-name="Group 2348" transform="translate(0 0)">
          <path id="Path_15817" data-name="Path 15817" d="M-216.086,6.353l.069.016.042.016a5.373,5.373,0,0,0,2.579,0A19.3,19.3,0,0,0-210.69,4.7c1.571-1.093,8.75-6.343,12.914-9.392-4.993,1.09-13.581,2.957-15.484,3.325a20.438,20.438,0,0,1-3.515.473c-.1,0-.155,0-.184-.006l-.052,0-.051-.01a7.183,7.183,0,0,1-3.344-1.512c-.292-.219-1.8-1.349-3.644-2.734-2.656,2.128-5.682,4.561-6.678,5.4a3.552,3.552,0,0,0-1.351,1.8,3.552,3.552,0,0,0,2,1.041c2.392.609,13.878,3.243,13.994,3.27" transform="translate(232.079 5.158)" fill="#fff"/>
        </g>
      </g>
      <g id="Group_2351" data-name="Group 2351" transform="translate(2.242 10.576)">
        <g id="Group_2350" data-name="Group 2350" transform="translate(0 0)">
          <path id="Path_15818" data-name="Path 15818" d="M-.113-.779l0,.006-.005.048Z" transform="translate(0.121 0.779)" fill="#fff"/>
        </g>
      </g>
      <g id="Group_2353" data-name="Group 2353" transform="translate(11.754 14.826)">
        <g id="Group_2352" data-name="Group 2352" transform="translate(0 0)">
          <path id="Path_15819" data-name="Path 15819" d="M-71.841-102.6a5.373,5.373,0,0,0-2.325,1.118l-.045.048-.041.029c-.034.027-1.263,1.007-2.906,2.322,1.826,1.371,3.233,2.425,3.269,2.452l.057.043.032.032a5.3,5.3,0,0,0,2.324,1.031,19.092,19.092,0,0,0,3.117-.437c1.888-.365,10.732-2.288,15.677-3.367-5.025-.936-14.066-2.614-15.991-2.925a19.318,19.318,0,0,0-3.168-.345" transform="translate(77.158 102.596)" fill="#fff"/>
        </g>
      </g>
      <g id="Group_2355" data-name="Group 2355" transform="translate(4.084 22.707)">
        <g id="Group_2354" data-name="Group 2354" transform="translate(0 0)">
          <path id="Path_15820" data-name="Path 15820" d="M-277.786-73.149a16.35,16.35,0,0,1-3.225,1.946l-.05.017-.051.011a8.5,8.5,0,0,1-1.891.219,6.127,6.127,0,0,1-1.815-.246c-.867-.2-10.476-2.4-13.527-3.154a18.345,18.345,0,0,0,14.3,6.828,18.386,18.386,0,0,0,17.866-14.052c-4.216,3.086-10.156,7.424-11.6,8.431" transform="translate(298.346 81.579)" fill="#fff"/>
        </g>
      </g>
      <g id="Group_2357" data-name="Group 2357" transform="translate(3.535 0)">
        <g id="Group_2356" data-name="Group 2356" transform="translate(0 0)">
          <path id="Path_15821" data-name="Path 15821" d="M-1.99-79.618c2.315-.666,12.827-3.42,13.73-3.657a7.186,7.186,0,0,1,3.668-.139l.051.01.05.015a16.149,16.149,0,0,1,3.25,1.826c1.454.947,7.417,5.028,11.674,7.947a18.387,18.387,0,0,0-17.724-13.5A18.353,18.353,0,0,0-2.138-79.574l.147-.044" transform="translate(2.138 87.117)" fill="#fff"/>
        </g>
      </g>
      <g id="Group_2359" data-name="Group 2359" transform="translate(0 12.348)">
        <g id="Group_2358" data-name="Group 2358" transform="translate(0 0)">
          <path id="Path_15822" data-name="Path 15822" d="M-29.434-4.863c.971-.813,3.757-3.055,6.312-5.1-2.488-1.872-5.1-3.85-6.043-4.589A7.242,7.242,0,0,1-30.6-16.013a18.355,18.355,0,0,0-1.014,6.032A18.342,18.342,0,0,0-30.532-3.76a7.965,7.965,0,0,1,1.1-1.1" transform="translate(31.613 16.013)" fill="#fff"/>
        </g>
      </g>
    </g>
  </g>
</svg>
