<svg xmlns="http://www.w3.org/2000/svg" width="110.952" height="112" viewBox="0 0 110.952 112">
  <g id="Group_5105" data-name="Group 5105" transform="translate(-6720.824 -8248)">
    <g id="Group_2361" data-name="Group 2361" transform="translate(6720.824 8248)">
      <g id="Group_2347" data-name="Group 2347" transform="translate(7.008 16.885)">
        <g id="Group_2346" data-name="Group 2346" transform="translate(0 0)">
          <path id="Path_15816" data-name="Path 15816" d="M-15.873-47.9c2.946,2.318,11.631,8.877,19.555,14.838,5.086-4.071,9.147-7.31,9.969-7.967A22.094,22.094,0,0,1,23.8-46l.156-.035.157-.019c.45-.054,3.113-.256,11.427,1.087,5.9.954,32.568,5.9,48.046,8.783C70.736-45,48.816-60.012,44.008-63.144a58.263,58.263,0,0,0-8.292-4.813,16.16,16.16,0,0,0-7.745.239l-.185.078-.15.031c-.346.09-34.687,9.084-41.833,11.139-3.933,1.131-5.412,2.634-5.9,3.294.2.794,1,2.744,4.219,5.274" transform="translate(20.092 68.288)" fill="#dac27a"/>
        </g>
      </g>
      <g id="Group_2349" data-name="Group 2349" transform="translate(6.436 59.824)">
        <g id="Group_2348" data-name="Group 2348" transform="translate(0 0)">
          <path id="Path_15817" data-name="Path 15817" d="M-183.351,29.916l.211.048.129.05a16.371,16.371,0,0,0,7.858,0,58.791,58.791,0,0,0,8.243-5.128c4.785-3.331,26.659-19.325,39.347-28.617C-142.778-.41-168.942,5.279-174.74,6.4a62.271,62.271,0,0,1-10.708,1.44c-.293,0-.472-.011-.561-.019l-.159-.014-.156-.031a21.885,21.885,0,0,1-10.19-4.606c-.89-.667-5.488-4.111-11.1-8.329-8.091,6.483-17.311,13.9-20.348,16.44-3.2,2.68-3.943,4.691-4.115,5.5.5.653,2.047,2.143,6.091,3.173,7.288,1.856,42.285,9.882,42.637,9.964" transform="translate(232.079 5.158)" fill="#dac27a"/>
        </g>
      </g>
      <g id="Group_2351" data-name="Group 2351" transform="translate(6.832 32.223)">
        <g id="Group_2350" data-name="Group 2350" transform="translate(0 0)">
          <path id="Path_15818" data-name="Path 15818" d="M-.1-.779l-.01.017-.016.146Z" transform="translate(0.121 0.779)" fill="#dac27a"/>
        </g>
      </g>
      <g id="Group_2353" data-name="Group 2353" transform="translate(35.812 45.172)">
        <g id="Group_2352" data-name="Group 2352" transform="translate(0 0)">
          <path id="Path_15819" data-name="Path 15819" d="M-60.958-102.594a16.37,16.37,0,0,0-7.083,3.406l-.138.146-.124.088c-.1.081-3.847,3.069-8.855,7.076,5.562,4.177,9.849,7.388,9.96,7.471l.173.13.1.1a16.152,16.152,0,0,0,7.082,3.141,58.159,58.159,0,0,0,9.5-1.332c5.751-1.111,32.7-6.972,47.764-10.259-15.312-2.853-42.857-7.965-48.72-8.911a58.866,58.866,0,0,0-9.651-1.052" transform="translate(77.158 102.596)" fill="#dac27a"/>
        </g>
      </g>
      <g id="Group_2355" data-name="Group 2355" transform="translate(12.445 69.185)">
        <g id="Group_2354" data-name="Group 2354" transform="translate(0 0)">
          <path id="Path_15820" data-name="Path 15820" d="M-235.7-55.893c-6.91,4.811-9.4,5.783-9.827,5.929l-.151.052-.155.035a25.914,25.914,0,0,1-5.763.668,18.665,18.665,0,0,1-5.531-.749c-2.642-.606-31.918-7.324-41.215-9.61a55.894,55.894,0,0,0,43.557,20.8,56.019,56.019,0,0,0,54.434-42.815c-12.845,9.4-30.943,22.62-35.349,25.686" transform="translate(298.346 81.579)" fill="#dac27a"/>
        </g>
      </g>
      <g id="Group_2357" data-name="Group 2357" transform="translate(10.77 0)">
        <g id="Group_2356" data-name="Group 2356" transform="translate(0 0)">
          <path id="Path_15821" data-name="Path 15821" d="M-1.689-64.27C5.366-66.3,37.392-74.691,40.143-75.411a21.9,21.9,0,0,1,11.175-.424l.156.031.151.047c.43.131,2.922,1.017,9.9,5.565,4.429,2.886,22.6,15.319,35.568,24.214a56.022,56.022,0,0,0-54-41.138A55.919,55.919,0,0,0-2.138-64.135c.149-.045.3-.092.449-.136" transform="translate(2.138 87.117)" fill="#dac27a"/>
        </g>
      </g>
      <g id="Group_2359" data-name="Group 2359" transform="translate(0 37.622)">
        <g id="Group_2358" data-name="Group 2358" transform="translate(0 0)">
          <path id="Path_15822" data-name="Path 15822" d="M-24.975,17.957c2.958-2.478,11.446-9.308,19.233-15.549-7.58-5.7-15.55-11.729-18.413-13.982a22.065,22.065,0,0,1-4.368-4.439A55.924,55.924,0,0,0-31.613,2.365,55.884,55.884,0,0,0-28.32,21.319a24.268,24.268,0,0,1,3.345-3.362" transform="translate(31.613 16.013)" fill="#dac27a"/>
        </g>
      </g>
    </g>
  </g>
</svg>
