<svg xmlns="http://www.w3.org/2000/svg" width="77" height="57.679" viewBox="0 0 77 57.679">
  <g id="surface1" transform="translate(0.5 0.145)">
    <path id="Path_18896" data-name="Path 18896" d="M116.241,91.92c6.293,0,11.425-3.864,11.425-8.6s-5.117-8.6-11.425-8.6-11.425,3.864-11.425,8.6S109.948,91.92,116.241,91.92Zm0-14.143c4.582,0,8.37,2.536,8.37,5.544s-3.834,5.544-8.37,5.544-8.37-2.535-8.37-5.544,3.834-5.559,8.37-5.559Zm0,0" transform="translate(-90.199 -63.997)" fill="#dac27a" stroke="#dac27a" stroke-width="1"/>
    <path id="Path_18897" data-name="Path 18897" d="M74.473,35.209H51.929v-15.9C51.929,8.862,40.306.355,25.965.355S0,8.862,0,19.309V38.1C0,47.718,9.851,55.66,22.543,56.866h.26c1.054.092,2.123.168,3.207.168H74.473A1.528,1.528,0,0,0,76,55.507V36.736A1.528,1.528,0,0,0,74.473,35.209ZM26.041,3.425c12.6,0,22.91,7.133,22.91,15.9s-10.248,15.9-22.91,15.9-22.91-7.133-22.91-15.9S13.456,3.425,26.041,3.425Zm22.91,24.8v6.98H40.092a23.029,23.029,0,0,0,8.782-6.98ZM72.945,53.98H69.89V46.251a1.527,1.527,0,1,0-3.054,0V54h-6.11v-4.2a1.527,1.527,0,0,0-3.055,0V54H51.563v-4.2a1.527,1.527,0,0,0-3.055,0V54H42.4V46.251a1.527,1.527,0,1,0-3.055,0V54H33.494v-4.2a1.527,1.527,0,0,0-3.055,0V54H24.33v-4.2a1.527,1.527,0,0,0-3.055,0v3.834C10.966,52.1,3.207,45.717,3.207,38.08V28.229C7.575,34.2,16.174,38.263,26.117,38.263H72.945Zm0,0" fill="#dac27a" stroke="#dac27a" stroke-width="1"/>
  </g>
</svg>
