<svg xmlns="http://www.w3.org/2000/svg" width="80.261" height="62.929" viewBox="0 0 80.261 62.929">
  <g id="Group_5149" data-name="Group 5149" transform="translate(2 2)">
    <g id="Group_5136" data-name="Group 5136" transform="translate(3.466 48.53)">
      <path id="Path_16895" data-name="Path 16895" stroke="#dac27a" d="M1047.2,1608.334v6.933a3.466,3.466,0,0,1-3.467,3.467H1036.8a3.468,3.468,0,0,1-3.466-3.467v-6.933" fill="none" transform="translate(-1033.334 -1608.334)" stroke-linecap="round" stroke-linejoin="round" stroke-miterlimit="2" stroke-width="4" fill-rule="evenodd"/>
    </g>
    <g id="Group_5137" data-name="Group 5137" transform="translate(58.929 48.53)">
      <path id="Path_16896" data-name="Path 16896" stroke="#dac27a" d="M1113.867,1608.334v6.933a3.465,3.465,0,0,1-3.466,3.467h-6.933a3.468,3.468,0,0,1-3.466-3.467v-6.933" fill="none" transform="translate(-1100.001 -1608.334)" stroke-linecap="round" stroke-linejoin="round" stroke-miterlimit="2" stroke-width="4" fill-rule="evenodd"/>
    </g>
    <g id="Group_5138" data-name="Group 5138" transform="translate(0 0)">
      <path id="Path_16897" data-name="Path 16897" stroke="#dac27a" d="M1087.469,1550H1047.13a6.465,6.465,0,0,0-6.2,4.617l-4.548,18.7a6.406,6.406,0,0,1-.835,1.768l-5.276,7.82a6.5,6.5,0,0,0-1.106,3.619v8.916a3.09,3.09,0,0,0,3.092,3.092h70.081a3.09,3.09,0,0,0,3.089-3.092v-8.916a6.5,6.5,0,0,0-1.1-3.619l-5.276-7.82a6.456,6.456,0,0,1-.835-1.768l-4.548-18.7A6.465,6.465,0,0,0,1087.469,1550Z" fill="none" transform="translate(-1029.167 -1550.001)" stroke-linecap="round" stroke-linejoin="round" stroke-miterlimit="2" stroke-width="4" fill-rule="evenodd"/>
    </g>
    <g id="Group_5139" data-name="Group 5139" transform="translate(10.399 38.131)">
      <path id="Path_16898" data-name="Path 16898" stroke="#dac27a" d="M1041.667,1595.835h6.933" fill="none" transform="translate(-1041.667 -1595.835)" stroke-linecap="round" stroke-linejoin="round" stroke-miterlimit="2" stroke-width="4" fill-rule="evenodd"/>
    </g>
    <g id="Group_5140" data-name="Group 5140" transform="translate(58.929 38.131)">
      <path id="Path_16899" data-name="Path 16899" stroke="#dac27a" d="M1100,1595.835h6.933" fill="none" transform="translate(-1100.001 -1595.835)" stroke-linecap="round" stroke-linejoin="round" stroke-miterlimit="2" stroke-width="4" fill-rule="evenodd"/>
    </g>
    <g id="Group_5141" data-name="Group 5141" transform="translate(27.732 38.131)">
      <path id="Path_16900" data-name="Path 16900" stroke="#dac27a" d="M1083.3,1606.234v-10.4h-20.8v10.4" fill="none" transform="translate(-1062.501 -1595.834)" stroke-linecap="round" stroke-linejoin="round" stroke-miterlimit="2" stroke-width="4" fill-rule="evenodd"/>
    </g>
    <g id="Group_5142" data-name="Group 5142" transform="translate(6.933 24.265)">
      <path id="Path_16901" data-name="Path 16901" stroke="#dac27a" d="M1037.5,1579.168h62.4" fill="none" transform="translate(-1037.501 -1579.168)" stroke-linecap="round" stroke-linejoin="round" stroke-miterlimit="2" stroke-width="4" fill-rule="evenodd"/>
    </g>
  </g>
</svg>
