<svg xmlns="http://www.w3.org/2000/svg" width="414" height="736" viewBox="0 0 414 736">
  <g id="Group_5291" data-name="Group 5291" transform="translate(0 2)">
    <rect id="Rectangle_570" data-name="Rectangle 570" width="414" height="736" transform="translate(0 -2)" fill="#21697b"/>
    <g id="Group_5257" data-name="Group 5257" transform="translate(-6690.824 -7939)" opacity="0.4">
      <g id="Group_2361" data-name="Group 2361" transform="translate(6720.824 8120)">
        <g id="Group_2347" data-name="Group 2347" transform="translate(21.853 52.657)">
          <g id="Group_2346" data-name="Group 2346" transform="translate(0 0)">
            <path id="Path_15816" data-name="Path 15816" d="M-6.936-4.715c9.189,7.23,36.271,27.683,60.983,46.273,15.862-12.694,28.523-22.8,31.088-24.846,2.488-2.354,12.812-11.2,31.633-15.483l.486-.109.491-.06c1.4-.169,9.707-.8,35.636,3.388,18.4,2.974,101.563,18.4,149.83,27.391C263.152,4.35,194.795-42.479,179.8-52.246c-16.961-11.049-24.114-14.293-25.858-15.01-14.113-2.592-23.411.485-24.153.745l-.578.243-.467.1c-1.078.281-108.17,28.327-130.454,34.738-12.266,3.528-16.877,8.215-18.385,10.272.622,2.477,3.124,8.558,13.155,16.448" transform="translate(20.092 68.288)" fill="#054454"/>
          </g>
        </g>
        <g id="Group_2349" data-name="Group 2349" transform="translate(20.071 186.559)">
          <g id="Group_2348" data-name="Group 2348" transform="translate(0 0)">
            <path id="Path_15817" data-name="Path 15817" d="M-80.122,104.22l.658.15.4.156c.764.243,10.285,3.072,24.5.005,1.732-.775,8.869-4.272,25.7-15.993C-13.93,78.153,54.283,28.276,93.85-.7,46.407,9.65-35.185,27.392-53.268,30.887c-20.393,3.937-29.751,4.491-33.393,4.491-.914,0-1.47-.035-1.749-.06l-.5-.044-.486-.1c-18.746-3.669-29.233-12.1-31.778-14.364-2.775-2.079-17.114-12.82-34.621-25.972-25.233,20.216-53.985,43.335-63.455,51.268-9.974,8.356-12.3,14.629-12.833,17.144,1.574,2.035,6.384,6.684,18.994,9.9,22.729,5.787,131.865,30.818,132.964,31.071" transform="translate(232.079 5.158)" fill="#054454"/>
          </g>
        </g>
        <g id="Group_2351" data-name="Group 2351" transform="translate(21.304 100.488)">
          <g id="Group_2350" data-name="Group 2350" transform="translate(0 0)">
            <path id="Path_15818" data-name="Path 15818" d="M-.042-.779l-.03.055-.049.456Z" transform="translate(0.121 0.779)" fill="#054454"/>
          </g>
        </g>
        <g id="Group_2353" data-name="Group 2353" transform="translate(111.678 140.867)">
          <g id="Group_2352" data-name="Group 2352" transform="translate(0 0)">
            <path id="Path_15819" data-name="Path 15819" d="M-26.638-102.588c-14.156,3.4-21.517,10.083-22.087,10.621l-.431.456-.387.275c-.322.254-12,9.57-27.615,22.066,17.346,13.027,30.714,23.04,31.061,23.3l.54.4.3.3c.6.532,8.054,6.878,22.085,9.794,1.885-.005,9.737-.314,29.612-4.153,17.935-3.465,101.966-21.741,148.951-31.993C107.644-80.413,21.744-96.354,3.46-99.306c-20.257-3.274-28.2-3.331-30.1-3.282" transform="translate(77.158 102.596)" fill="#054454"/>
          </g>
        </g>
        <g id="Group_2355" data-name="Group 2355" transform="translate(38.808 215.752)">
          <g id="Group_2354" data-name="Group 2354" transform="translate(0 0)">
            <path id="Path_15820" data-name="Path 15820" d="M-103-1.477c-21.55,15-29.309,18.033-30.645,18.489l-.472.161-.483.109a80.815,80.815,0,0,1-17.971,2.082,58.208,58.208,0,0,1-17.248-2.335c-8.239-1.891-99.535-22.841-128.528-29.969A174.3,174.3,0,0,0-162.514,51.939,174.693,174.693,0,0,0,7.237-81.579C-32.819-52.259-89.26-11.039-103-1.477" transform="translate(298.346 81.579)" fill="#054454"/>
          </g>
        </g>
        <g id="Group_2357" data-name="Group 2357" transform="translate(33.587 0)">
          <g id="Group_2356" data-name="Group 2356" transform="translate(0 0)">
            <path id="Path_15821" data-name="Path 15821" d="M-.738-15.87c22-6.327,121.874-32.5,130.451-34.744,3.211-1.138,16.1-4.99,34.85-1.323l.486.1.472.147c1.34.409,9.112,3.173,30.88,17.354,13.813,9,70.472,47.771,110.917,75.511A174.661,174.661,0,0,0-2.138-15.447c.464-.142.922-.286,1.4-.423" transform="translate(2.138 87.117)" fill="#054454"/>
          </g>
        </g>
        <g id="Group_2359" data-name="Group 2359" transform="translate(0 117.324)">
          <g id="Group_2358" data-name="Group 2358" transform="translate(0 0)">
            <path id="Path_15822" data-name="Path 15822" d="M-10.914,89.921C-1.69,82.194,24.779,60.9,49.063,41.432,25.426,23.642.572,4.855-8.357-2.17A68.81,68.81,0,0,1-21.979-16.013a175.268,175.268,0,0,0,.636,116.418,75.68,75.68,0,0,1,10.43-10.484" transform="translate(31.613 16.013)" fill="#054454"/>
          </g>
        </g>
      </g>
    </g>
  </g>
</svg>
