<svg id="Group_5115" data-name="Group 5115" xmlns="http://www.w3.org/2000/svg" width="27.982" height="27.982" viewBox="0 0 27.982 27.982">
  <g id="call-center-agent" transform="translate(7.103 7.031)">
    <path id="Path_18891" data-name="Path 18891" d="M104.708,100.466a5.882,5.882,0,1,0-11.765,0v.719a1.167,1.167,0,0,0-.993,1.151v1.707a1.167,1.167,0,0,0,1.166,1.166H94.1a.846.846,0,0,0,.845-.845v-2.349a.868.868,0,0,0-.993-.845v-.7a4.869,4.869,0,1,1,9.737,0v.7a.878.878,0,0,0-.993.845V104.6a3.625,3.625,0,0,1-1.026,1.383,3.558,3.558,0,0,1-.734.468,1.412,1.412,0,0,0-1.239-.737H98.6a1.411,1.411,0,0,0,0,2.822h1.1a1.413,1.413,0,0,0,1.359-1.034,4.569,4.569,0,0,0,1.26-.736,4.624,4.624,0,0,0,1.218-1.558h1a1.167,1.167,0,0,0,1.166-1.166v-1.707a1.167,1.167,0,0,0-.993-1.151v-.719ZM93.936,104.2h-.82a.152.152,0,0,1-.152-.152v-1.707a.152.152,0,0,1,.152-.152h.82Zm5.765,3.329H98.6a.4.4,0,1,1,0-.795h1.1a.4.4,0,0,1,.4.4v0A.4.4,0,0,1,99.7,107.525Zm4.986-3.481a.152.152,0,0,1-.152.152h-.82v-2.011h.82a.152.152,0,0,1,.152.152Z" transform="translate(-91.95 -94.584)" fill="#fff"/>
  </g>
  <g id="call-center-agent-2" data-name="call-center-agent">
    <path id="Path_18891-2" data-name="Path 18891" d="M337.324,32.16a1.631,1.631,0,0,0,.83,3.034h0l10.927,0h.022a13.991,13.991,0,0,0-.47-27.977,13.99,13.99,0,0,0-9.621,23.948Zm-.106-11.032A11.681,11.681,0,0,1,348.666,9.584h.173a11.62,11.62,0,0,1,.23,23.238l-8.211,0a1.788,1.788,0,0,0,.933-1.39,1.747,1.747,0,0,0-.59-1.472,11.617,11.617,0,0,1-3.983-8.833Z" transform="translate(-334.847 -7.212)" fill="#fff"/>
  </g>
</svg>
